<svg width="48" height="49" viewBox="0 0 48 49" fill="none" xmlns="http://www.w3.org/2000/svg">
<path d="M43.157 26.1785V16.309C43.1572 16.1174 43.1069 15.929 43.0111 15.763C42.9154 15.597 42.7775 15.4592 42.6115 15.3634L33.818 10.3119V6.76322C33.8183 6.57388 33.7692 6.38777 33.6757 6.22313C33.5821 6.05849 33.4473 5.92104 33.2845 5.82429L24.5564 0.643052H24.5433L24.0229 0.492554H24.0098L23.9313 0.506732L23.5363 0.615761L23.4414 0.643052L14.7133 5.82429C14.5505 5.92104 14.4157 6.05849 14.3221 6.22313C14.2286 6.38777 14.1796 6.57388 14.1798 6.76322V10.3392L5.4354 15.3634C5.26939 15.4592 5.13156 15.597 5.03579 15.763C4.94003 15.929 4.88971 16.1174 4.88989 16.309V26.148L0.533518 28.7348C0.370858 28.8314 0.236137 28.9688 0.142602 29.1332C0.0490675 29.2976 -7.92368e-05 29.4836 9.58919e-08 29.6728V40.0331C-7.92368e-05 40.2223 0.0490675 40.4081 0.142602 40.5725C0.236137 40.737 0.370858 40.8743 0.533518 40.971L9.26158 46.1522L9.81471 46.306L10.3722 46.1522L14.9414 43.4399L23.4785 48.3475L24.024 48.4926L24.5695 48.3475L33.0794 43.4586L37.6245 46.1566L38.1809 46.306L38.7384 46.1522L47.4665 40.971C47.6291 40.8743 47.7639 40.737 47.8574 40.5725C47.9509 40.4081 48.0001 40.2223 48 40.0331V29.6728C48.0001 29.4836 47.9509 29.2976 47.8574 29.1332C47.7639 28.9688 47.6291 28.8314 47.4665 28.7348L43.157 26.1785ZM45.818 37.7919L39.297 33.7057V26.4228L45.818 30.2933V37.7919ZM24.0207 12.6861L30.8537 16.9687L23.9978 21.0409L17.1452 16.9721L24.0207 12.6861ZM31.6349 14.8825L25.1139 10.794V3.51124L31.6349 7.38385V14.8825ZM22.9319 3.48182V10.7885L16.3608 14.888V7.38385L22.9319 3.48182ZM8.74881 26.3923V33.7045L2.17765 37.7995V30.2943L8.74881 26.3923ZM17.4518 30.2933V37.7919L10.9297 33.7057V26.4228L17.4518 30.2933ZM9.81471 43.9503L2.96208 39.8825L9.83545 35.5967L16.6695 39.8793L9.81471 43.9503ZM24.0218 46.1434L17.095 42.1651L19.0992 40.9742C19.2619 40.8775 19.3965 40.7403 19.4901 40.5759C19.5836 40.4114 19.6328 40.2255 19.6327 40.0363V29.676C19.6328 29.4868 19.5836 29.301 19.4901 29.1365C19.3965 28.9721 19.2619 28.8347 19.0992 28.7381L10.3711 23.5546H10.358L9.83762 23.4052H9.82453L9.74599 23.4183L9.35105 23.5274L9.25612 23.5525L7.06645 24.8535V16.9404L14.1765 12.8562V17.1269C14.1765 17.3161 14.2256 17.5019 14.3191 17.6663C14.4127 17.8308 14.5474 17.9681 14.7101 18.0648L23.4381 23.2471L23.9956 23.3998L24.5531 23.2471L33.2812 18.0648C33.4439 17.9681 33.5786 17.8308 33.6721 17.6663C33.7657 17.5019 33.8148 17.3161 33.8147 17.1269V12.8258L40.9739 16.9383V24.8808L38.7352 23.5503H38.7221L38.2017 23.4008H38.1875L38.11 23.414L37.7151 23.523L37.6201 23.5481L28.8921 28.7316C28.7294 28.8282 28.5947 28.9654 28.5012 29.1299C28.4077 29.2943 28.3585 29.4803 28.3586 29.6694V40.0298C28.3585 40.2189 28.4077 40.4049 28.5012 40.5693C28.5947 40.7338 28.7294 40.871 28.8921 40.9676L30.9203 42.1672L24.0218 46.1434ZM37.1139 26.3923V33.7045L30.5439 37.7995V30.2943L37.1139 26.3923ZM38.1809 43.9503L31.3283 39.8825L38.2017 35.5967L45.0357 39.8793L38.1809 43.9503Z" fill="#EB3743"/>
</svg>
