<svg width="48" height="49" viewBox="0 0 48 49" fill="none" xmlns="http://www.w3.org/2000/svg">
<path d="M41.0003 0.492554H6.99975C5.14324 0.495578 3.36371 1.23406 2.0515 2.54613C0.739286 3.8582 0.00151132 5.63668 0 7.49147V41.4925C0.00120869 43.3475 0.738869 45.1262 2.05112 46.4386C3.36336 47.7509 5.14304 48.4895 6.99975 48.4926H41.0003C42.857 48.4895 44.6366 47.7509 45.9489 46.4386C47.2611 45.1262 47.9988 43.3475 48 41.4925V7.49147C47.9985 5.63668 47.2607 3.8582 45.9485 2.54613C44.6363 1.23406 42.8568 0.495578 41.0003 0.492554ZM6.99975 2.49161H23.0001V6.48971C22.9995 7.28471 22.6833 8.04688 22.1208 8.60924C21.5584 9.1716 20.7956 9.4882 19.9999 9.48941H18.613C18.0352 8.981 17.3229 8.64984 16.5615 8.53576C15.8001 8.42167 15.022 8.52945 14.3203 8.84616C13.6187 9.16286 13.0234 9.67507 12.6058 10.3213C12.1883 10.9676 11.9662 11.7205 11.9662 12.4897C11.9662 13.2589 12.1883 14.0117 12.6058 14.658C13.0234 15.3043 13.6187 15.8165 14.3203 16.1332C15.022 16.4499 15.8001 16.5576 16.5615 16.4436C17.3229 16.3295 18.0352 15.9983 18.613 15.4899H19.9965C20.7922 15.4911 21.555 15.8077 22.1174 16.3701C22.6799 16.9324 22.9961 17.6946 22.9967 18.4896V23.4907H17.9967C16.6705 23.4928 15.3993 24.0205 14.4619 24.9578C13.5246 25.8951 12.9976 27.1656 12.9967 28.4906V30.492H13.0436C13.085 30.6875 13.1851 30.8656 13.3306 31.0027C13.6323 31.2725 13.845 31.6274 13.9403 32.0206C14.0357 32.4138 14.0094 32.8266 13.8648 33.2045C13.7203 33.5824 13.4643 33.9075 13.1308 34.1369C12.7972 34.3663 12.4018 34.4891 11.9969 34.4891C11.5919 34.4891 11.1965 34.3663 10.863 34.1369C10.5294 33.9075 10.2734 33.5824 10.1289 33.2045C9.98432 32.8266 9.95798 32.4138 10.0534 32.0206C10.1488 31.6274 10.3614 31.2725 10.6631 31.0027C10.8086 30.8656 10.9088 30.6875 10.9501 30.492H10.997V28.4941C10.9961 27.1691 10.4691 25.8985 9.53179 24.9612C8.59444 24.0238 7.32324 23.4963 5.99703 23.4942H1.99522V7.4937C1.99552 6.16752 2.52281 4.89581 3.46121 3.95785C4.39961 3.01988 5.67234 2.49251 6.99975 2.49161ZM1.99979 41.4925V25.4909H6.0016C6.79723 25.4924 7.5598 25.809 8.12218 26.3713C8.68457 26.9336 9.00089 27.6957 9.0018 28.4906V29.8797C8.49206 30.4567 8.15979 31.1683 8.04493 31.9293C7.93007 32.6902 8.03748 33.4682 8.35426 34.1697C8.67103 34.8712 9.18371 35.4664 9.83075 35.884C10.4778 36.3015 11.2317 36.5236 12.002 36.5236C12.7723 36.5236 13.5262 36.3015 14.1733 35.884C14.8203 35.4664 15.333 34.8712 15.6498 34.1697C15.9665 33.4682 16.0739 32.6902 15.9591 31.9293C15.8442 31.1683 15.512 30.4567 15.0022 29.8797V28.4941C15.0031 27.6992 15.3194 26.9371 15.8818 26.3748C16.4442 25.8125 17.2068 25.4959 18.0025 25.4944H23.0024V30.4954C23.0033 31.8204 23.5303 33.0909 24.4676 34.0283C25.4049 34.9656 26.6762 35.4932 28.0024 35.4954H30.0022V35.4485C30.198 35.4072 30.3764 35.3067 30.5132 35.1607C30.7837 34.8595 31.1392 34.6473 31.5329 34.5523C31.9265 34.4573 32.3398 34.4838 32.718 34.6284C33.0962 34.7731 33.4216 35.029 33.6512 35.3623C33.8807 35.6957 34.0036 36.0908 34.0036 36.4954C34.0036 36.9001 33.8807 37.2951 33.6512 37.6284C33.4216 37.9618 33.0962 38.2178 32.718 38.3624C32.3398 38.5071 31.9265 38.5336 31.5329 38.4386C31.1392 38.3436 30.7837 38.1314 30.5132 37.8302C30.3767 37.6836 30.1982 37.5828 30.0022 37.5413V37.4955H28.0001C26.6738 37.498 25.4025 38.0258 24.4652 38.9633C23.5279 39.9008 23.001 41.1716 23.0001 42.4967V46.4948H6.99975C5.67323 46.4923 4.40184 45.9643 3.46449 45.0266C2.52714 44.0888 2.00039 42.8178 1.99979 41.4925ZM40.9991 46.4935H24.9999V42.4954C25.0002 41.7002 25.3163 40.9376 25.8787 40.375C26.4412 39.8124 27.2042 39.4958 28.0001 39.4946H29.3881C29.9659 40.003 30.6782 40.3341 31.4396 40.4482C32.201 40.5623 32.9792 40.4545 33.6808 40.1378C34.3824 39.8211 34.9778 39.3089 35.3953 38.6627C35.8129 38.0164 36.035 37.2635 36.035 36.4943C36.035 35.7251 35.8129 34.9722 35.3953 34.326C34.9778 33.6797 34.3824 33.1675 33.6808 32.8508C32.9792 32.5341 32.201 32.4263 31.4396 32.5404C30.6782 32.6545 29.9659 32.9855 29.3881 33.4939H28.0001C27.2044 33.4927 26.4416 33.1763 25.8792 32.6139C25.3167 32.0516 25.0005 31.2892 24.9999 30.4942V25.4933H29.9999C31.3259 25.4911 32.5969 24.9637 33.5342 24.0266C34.4715 23.0895 34.9986 21.8192 34.9998 20.4944V18.4931H34.9529C34.9115 18.2977 34.8114 18.1195 34.666 17.9825C34.3642 17.7126 34.1516 17.3577 34.0562 16.9645C33.9608 16.5713 33.9872 16.1586 34.1317 15.7807C34.2763 15.4027 34.5323 15.0776 34.8658 14.8482C35.1994 14.6188 35.5948 14.496 35.9997 14.496C36.4046 14.496 36.8 14.6188 37.1336 14.8482C37.4671 15.0776 37.7231 15.4027 37.8677 15.7807C38.0123 16.1586 38.0386 16.5713 37.9432 16.9645C37.8478 17.3577 37.6352 17.7126 37.3335 17.9825C37.1879 18.1195 37.0878 18.2976 37.0465 18.4931H36.9996V20.4944C37.0008 21.8192 37.5279 23.0895 38.4652 24.0266C39.4025 24.9637 40.6735 25.4911 41.9996 25.4933H46.0014V41.4948C45.9999 42.8197 45.4726 44.0899 44.5351 45.027C43.5976 45.964 42.3264 46.4914 41.0003 46.4935H40.9991ZM45.9991 23.493H41.9973C41.2016 23.4917 40.4388 23.1753 39.8764 22.6129C39.3139 22.0506 38.9977 21.2883 38.9971 20.4933V19.1043C39.5068 18.5273 39.8391 17.8156 39.9539 17.0546C40.0688 16.2936 39.9614 15.5158 39.6446 14.8143C39.3279 14.1128 38.8151 13.5175 38.1681 13.1C37.521 12.6825 36.7671 12.4604 35.9968 12.4604C35.2266 12.4604 34.4726 12.6825 33.8256 13.1C33.1785 13.5175 32.6659 14.1128 32.3491 14.8143C32.0323 15.5158 31.9249 16.2936 32.0398 17.0546C32.1547 17.8156 32.4869 18.5273 32.9966 19.1043V20.4933C32.996 21.2883 32.6798 22.0506 32.1174 22.6129C31.5549 23.1753 30.7922 23.4917 29.9964 23.493H24.9964V18.492C24.9952 17.1671 24.4682 15.8967 23.5309 14.9595C22.5936 14.0222 21.3226 13.4944 19.9965 13.492H17.9967V13.5388C17.8009 13.5804 17.6226 13.6809 17.4856 13.8268C17.2151 14.1284 16.8594 14.3408 16.4655 14.436C16.0715 14.5312 15.6579 14.5048 15.2794 14.3601C14.9008 14.2155 14.5751 13.9594 14.3454 13.6258C14.1156 13.2923 13.9925 12.8968 13.9925 12.4919C13.9925 12.087 14.1156 11.6917 14.3454 11.3581C14.5751 11.0245 14.9008 10.7684 15.2794 10.6238C15.6579 10.4791 16.0715 10.4527 16.4655 10.5479C16.8594 10.6432 17.2151 10.8556 17.4856 11.1571C17.6221 11.3034 17.8007 11.4036 17.9967 11.4438V11.4918H19.9965C21.3227 11.4897 22.5939 10.9621 23.5313 10.0247C24.4686 9.08739 24.9955 7.81694 24.9964 6.49194V2.49384H41.0003C42.3267 2.49596 43.5981 3.02375 44.5354 3.96133C45.4728 4.89892 45.9996 6.16963 46.0002 7.49482L45.9991 23.493Z" fill="#EB3743"/>
</svg>
