<svg width="48" height="49" viewBox="0 0 48 49" fill="none" xmlns="http://www.w3.org/2000/svg">
<path d="M46.9718 6.49419H41.7527V1.49399C41.7533 1.31313 41.7026 1.13553 41.6058 0.980128C41.509 0.824724 41.3697 0.697353 41.2031 0.611667C41.0365 0.525981 40.8487 0.485202 40.6596 0.493642C40.4706 0.502081 40.2876 0.559505 40.13 0.659666L33.8666 4.65952L33.5394 5.01525C28.5064 2.52281 22.6869 1.89701 17.2003 3.25825C11.7137 4.61949 6.94744 7.87164 3.81807 12.3892C0.688705 16.9067 -0.582748 22.3706 0.248271 27.7301C1.07929 33.0896 3.95408 37.9664 8.31976 41.4221L6.31747 47.1763C6.22973 47.427 6.24927 47.7006 6.37195 47.9374C6.49463 48.1743 6.71044 48.3552 6.97216 48.4405L7.29957 48.4926C7.51879 48.4922 7.73226 48.426 7.9099 48.3032C8.08753 48.1804 8.2203 48.0073 8.28925 47.8083L10.07 42.6894C13.8675 45.1672 18.3586 46.4926 22.9565 46.4926C27.5544 46.4926 32.0454 45.1672 35.8428 42.6894L37.6236 47.8083C37.6925 48.0073 37.8253 48.1804 38.0029 48.3032C38.1806 48.426 38.394 48.4922 38.6133 48.4926L38.9407 48.4405C39.2026 48.3554 39.4186 48.1746 39.5413 47.9377C39.664 47.7008 39.6834 47.427 39.5954 47.1763L37.5931 41.4221C41.6494 38.2225 44.4291 33.7851 45.4645 28.8565C46.4999 23.9279 45.7278 18.8088 43.2781 14.3605L43.6492 14.0475L47.824 8.04825C47.9293 7.89755 47.9897 7.72226 47.9988 7.54126C48.0079 7.36026 47.9654 7.18031 47.8757 7.02065C47.786 6.861 47.6526 6.72775 47.4897 6.63501C47.3268 6.54226 47.1407 6.49357 46.9512 6.49419H46.9718ZM39.6609 3.3652V7.0824L34.7636 11.7759L35.4248 6.07175L39.6609 3.3652ZM32.4011 14.0392L29.5281 16.7906C27.6847 15.3182 25.3615 14.5068 22.9592 14.4961C20.5495 14.4644 18.2006 15.2198 16.3009 16.6372C14.4012 18.0546 13.0645 20.0491 12.5116 22.2912C11.9587 24.5332 12.2229 26.8886 13.2603 28.9677C14.2978 31.0468 16.0465 32.7251 18.2173 33.7255C20.3881 34.7258 22.8511 34.9881 25.1991 34.469C27.547 33.9499 29.6393 32.6806 31.1301 30.8707C32.6209 29.0608 33.4209 26.8188 33.3979 24.5154C33.3749 22.2121 32.5301 19.9851 31.0033 18.2028L33.8765 15.4515L34.074 15.4316C36.521 18.1856 37.7582 21.7378 37.5265 25.3442C37.2948 28.9505 35.6122 32.3313 32.8311 34.7785C30.05 37.2257 26.3862 38.5493 22.607 38.4723C18.8277 38.3953 15.2262 36.9235 12.5568 34.3652C9.88736 31.807 8.35708 28.3607 8.28646 24.7482C8.21584 21.1356 9.61039 17.6372 12.1779 14.9854C14.7455 12.3336 18.287 10.7341 22.0606 10.5222C25.8342 10.3103 29.5471 11.5023 32.4219 13.8484L32.4011 14.0392ZM25.052 24.4974C25.0512 24.8918 24.928 25.2772 24.6981 25.6048C24.4682 25.9324 24.1419 26.1874 23.7604 26.3378C23.3789 26.4881 22.9594 26.527 22.5548 26.4495C22.1501 26.3721 21.7785 26.1818 21.487 25.9026C21.1955 25.6234 20.9971 25.2679 20.9169 24.881C20.8367 24.494 20.8784 24.0931 21.0365 23.7287C21.1946 23.3644 21.4622 23.053 21.8054 22.8339C22.1485 22.6149 22.5519 22.4979 22.9646 22.4979L23.473 22.596L22.2269 23.7902C22.1242 23.8816 22.0418 23.9918 21.9845 24.1143C21.9273 24.2367 21.8964 24.3689 21.8938 24.503C21.8912 24.6371 21.9168 24.7704 21.9692 24.8949C22.0216 25.0193 22.0996 25.1323 22.1987 25.2273C22.2978 25.3223 22.4158 25.3972 22.5458 25.4477C22.6759 25.4981 22.8152 25.523 22.9556 25.5209C23.0959 25.5188 23.2343 25.4897 23.3626 25.4353C23.4909 25.381 23.6064 25.3024 23.7023 25.2045L24.9484 24.0102L25.052 24.4974ZM25.0728 21.0648C24.4364 20.6975 23.708 20.5015 22.9646 20.4975C22.029 20.4859 21.1158 20.7711 20.3678 21.3085C19.6199 21.8459 19.0793 22.6052 18.831 23.4675C18.5826 24.3298 18.6403 25.2464 18.9951 26.074C19.3498 26.9016 19.9817 27.5934 20.7917 28.0412C21.6017 28.489 22.544 28.6675 23.4714 28.5488C24.3989 28.43 25.2589 28.0207 25.917 27.385C26.5751 26.7492 26.9943 25.9228 27.1086 25.0352C27.223 24.1475 27.0263 23.2485 26.5492 22.4791L29.5346 19.6182C30.8496 21.239 31.4688 23.278 31.2659 25.3198C31.063 27.3617 30.0533 29.2529 28.4425 30.608C26.8318 31.9632 24.7411 32.6805 22.5964 32.6137C20.4518 32.5469 18.4144 31.7012 16.8993 30.2487C15.3842 28.7963 14.5055 26.8465 14.442 24.7963C14.3785 22.7461 15.135 20.7498 16.5575 19.2143C17.98 17.6787 19.9615 16.7192 22.0983 16.5313C24.2351 16.3433 26.3664 16.9411 28.0582 18.2028L25.0728 21.0648ZM22.9646 44.4989C19.7586 44.5103 16.5927 43.8174 13.7114 42.4735C10.83 41.1297 8.31017 39.1709 6.34651 36.7485C4.38285 34.3261 3.02783 31.5048 2.38602 28.5023C1.74422 25.4999 1.83283 22.3966 2.64497 19.4321C3.4571 16.4676 4.971 13.7211 7.06993 11.4046C9.16886 9.08817 11.7966 7.26377 14.7503 6.07213C17.7041 4.88048 20.9049 4.35352 24.1055 4.53195C27.3061 4.71038 30.421 5.58946 33.2098 7.10125L32.6969 11.5214C29.868 9.55678 26.4614 8.49813 22.9646 8.49679C19.1947 8.47927 15.5284 9.67541 12.5565 11.8925C9.5846 14.1096 7.48025 17.2185 6.58241 20.7183C5.68457 24.2181 6.04553 27.9048 7.60726 31.1845C9.16899 34.4643 11.8405 37.1459 15.1912 38.7973C18.542 40.4488 22.3768 40.9738 26.0778 40.2879C29.7788 39.6019 33.1305 37.745 35.5927 35.0162C38.0548 32.2874 39.4841 28.8458 39.6502 25.2459C39.8164 21.6459 38.7097 18.0973 36.5084 15.1719L41.1209 14.6817C42.923 17.7179 43.8606 21.1528 43.8404 24.6435C43.8201 28.1343 42.8428 31.5589 41.0056 34.5758C39.1684 37.5928 36.5356 40.0965 33.3701 41.8373C30.2045 43.5781 26.6167 44.4952 22.9646 44.4969V44.4989ZM42.1989 12.5551L36.2444 13.1891L41.1416 8.49565H45.0219L42.1989 12.5551Z" fill="#EB3743"/>
</svg>
