<svg width="9" height="8" viewBox="0 0 9 8" fill="none" xmlns="http://www.w3.org/2000/svg">
<path d="M0.296 3.90519C0.296 3.36519 0.398 2.85819 0.602 2.38419C0.812 1.91019 1.094 1.49619 1.448 1.14219C1.802 0.782187 2.216 0.500187 2.69 0.296187C3.164 0.0921875 3.671 -0.00981247 4.211 -0.00981247C4.751 -0.00981247 5.261 0.0921875 5.741 0.296187C6.221 0.500187 6.638 0.782187 6.992 1.14219C7.346 1.49619 7.625 1.91019 7.829 2.38419C8.039 2.85819 8.144 3.36519 8.144 3.90519C8.144 4.43919 8.039 4.94319 7.829 5.41719C7.625 5.88519 7.346 6.29619 6.992 6.65019C6.638 7.00419 6.221 7.28319 5.741 7.48719C5.261 7.69119 4.751 7.79319 4.211 7.79319C3.671 7.79319 3.164 7.69119 2.69 7.48719C2.216 7.28319 1.802 7.00419 1.448 6.65019C1.094 6.29619 0.812 5.88519 0.602 5.41719C0.398 4.94319 0.296 4.43919 0.296 3.90519Z" fill="#222B60"/>
</svg>
