<svg width="17" height="17" viewBox="0 0 17 17" fill="none" xmlns="http://www.w3.org/2000/svg">
<g clip-path="url(#clip0_103_28633)">
<path d="M14.5 0.5H2.5C1.397 0.5 0.5 1.397 0.5 2.5V14.5C0.5 15.603 1.397 16.5 2.5 16.5H14.5C15.603 16.5 16.5 15.603 16.5 14.5V2.5C16.5 1.397 15.603 0.5 14.5 0.5Z" fill="#1976D2"/>
<path fill-rule="evenodd" clip-rule="evenodd" d="M14 8.5H11.5V6.5C11.5 5.948 11.948 6 12.5 6H13.5V3.5H11.5C10.7044 3.5 9.94129 3.81607 9.37868 4.37868C8.81607 4.94129 8.5 5.70435 8.5 6.5V8.5H6.5V11H8.5V16.5H11.5V11H13L14 8.5Z" fill="#FAFAFA"/>
</g>
<defs>
<clipPath id="clip0_103_28633">
<rect width="16" height="16" fill="white" transform="translate(0.5 0.5)"/>
</clipPath>
</defs>
</svg>
