<svg width="16" height="17" viewBox="0 0 16 17" fill="none" xmlns="http://www.w3.org/2000/svg">
<g clip-path="url(#clip0_103_28500)">
<path d="M15.8079 8.6497C15.8079 7.99419 15.7547 7.51584 15.6396 7.01978H8.1543V9.97843H12.548C12.4595 10.7137 11.9811 11.821 10.9181 12.5651L10.9032 12.6641L13.2699 14.4976L13.4339 14.5139C14.9398 13.1232 15.8079 11.0769 15.8079 8.6497Z" fill="#4285F4"/>
<path d="M8.15534 16.445C10.3079 16.445 12.115 15.7363 13.4349 14.5139L10.9191 12.565C10.2459 13.0345 9.34233 13.3623 8.15534 13.3623C6.04707 13.3623 4.25769 11.9716 3.61983 10.0493L3.52633 10.0573L1.06539 11.9618L1.0332 12.0513C2.34423 14.6556 5.03717 16.445 8.15534 16.445Z" fill="#34A853"/>
<path d="M3.61865 10.0494C3.45034 9.5533 3.35294 9.02176 3.35294 8.47257C3.35294 7.92332 3.45034 7.39184 3.60979 6.89577L3.60534 6.79013L1.11355 4.85498L1.03202 4.89376C0.491686 5.97449 0.181641 7.18811 0.181641 8.47257C0.181641 9.75703 0.491686 10.9706 1.03202 12.0513L3.61865 10.0494Z" fill="#FBBC05"/>
<path d="M8.15534 3.58269C9.65238 3.58269 10.6622 4.22934 11.238 4.76974L13.488 2.57285C12.1062 1.2884 10.3079 0.5 8.15534 0.5C5.03717 0.5 2.34423 2.28937 1.0332 4.89371L3.61097 6.89573C4.25769 4.97347 6.04707 3.58269 8.15534 3.58269Z" fill="#EB4335"/>
</g>
<defs>
<clipPath id="clip0_103_28500">
<rect width="15.6352" height="16" fill="white" transform="translate(0.181641 0.5)"/>
</clipPath>
</defs>
</svg>
