<svg width="57" height="60" viewBox="0 0 57 60" fill="none" xmlns="http://www.w3.org/2000/svg">
<path d="M26.9271 25.8915H29.5413V11.8294H32.4332L28.2342 7.63184L24.0352 11.8294H26.9271V25.8915Z" fill="#222B60"/>
<path d="M29.5399 37.6423H26.9258V60.0002H29.5399V37.6423Z" fill="#222B60"/>
<path d="M56.4633 30.4607H34.1055V33.0749H56.4633V30.4607Z" fill="#222B60"/>
<path d="M43.2747 18.5741L41.4252 16.7261L28.2331 29.9182L15.0409 16.7261L13.1914 18.5741L26.385 31.7677L13.1914 44.9599L15.0409 46.808L28.2331 33.6158L41.4252 46.808L43.2747 44.9599L30.0811 31.7677L43.2747 18.5741Z" fill="#222B60"/>
<path d="M22.3578 30.4607H0V33.0749H22.3578V30.4607Z" fill="#222B60"/>
<path d="M28.2352 5.82192C29.8429 5.82192 31.1461 4.51864 31.1461 2.91096C31.1461 1.30328 29.8429 0 28.2352 0C26.6275 0 25.3242 1.30328 25.3242 2.91096C25.3242 4.51864 26.6275 5.82192 28.2352 5.82192Z" fill="#222B60"/>
</svg>
