<svg width="21" height="20" viewBox="0 0 21 20" fill="none" xmlns="http://www.w3.org/2000/svg">
<g clip-path="url(#clip0_83_9804)">
<path d="M15.5 15.8333H5.5C5.04167 15.8333 4.66667 15.4583 4.66667 15V5C4.66667 4.54167 5.04167 4.16667 5.5 4.16667H9.66667C10.125 4.16667 10.5 3.79167 10.5 3.33333C10.5 2.875 10.125 2.5 9.66667 2.5H4.66667C3.74167 2.5 3 3.25 3 4.16667V15.8333C3 16.75 3.75 17.5 4.66667 17.5H16.3333C17.25 17.5 18 16.75 18 15.8333V10.8333C18 10.375 17.625 10 17.1667 10C16.7083 10 16.3333 10.375 16.3333 10.8333V15C16.3333 15.4583 15.9583 15.8333 15.5 15.8333ZM12.1667 3.33333C12.1667 3.79167 12.5417 4.16667 13 4.16667H15.1583L7.55 11.775C7.225 12.1 7.225 12.625 7.55 12.95C7.875 13.275 8.4 13.275 8.725 12.95L16.3333 5.34167V7.5C16.3333 7.95833 16.7083 8.33333 17.1667 8.33333C17.625 8.33333 18 7.95833 18 7.5V3.33333C18 2.875 17.625 2.5 17.1667 2.5H13C12.5417 2.5 12.1667 2.875 12.1667 3.33333Z" fill="#EB3743"/>
</g>
<defs>
<clipPath id="clip0_83_9804">
<rect width="20" height="20" fill="white" transform="translate(0.5)"/>
</clipPath>
</defs>
</svg>
