<svg width="46" height="46" viewBox="0 0 46 46" fill="none" xmlns="http://www.w3.org/2000/svg">
<path d="M15.5 5.5L45 4V41H40" stroke="#EB3743" stroke-width="2"/>
<path d="M5.5 6L32.5 2V6.5" stroke="#EB3743" stroke-width="2"/>
<path d="M11 5.5L40 7V44L32 41.5" stroke="#EB3743" stroke-width="2"/>
<path d="M36 9.88278V24.5H32.5H31.5V25.5V41V42.844L6 39.1349V6.13278L36 9.88278Z" stroke="#EB3743" stroke-width="2"/>
<path d="M5.50255 12.5C1.5 13.5 -0.500193 17.5 3.50192 18.5C7.26777 19.441 11.1679 17.1667 11.5009 15.5" stroke="#EB3743" stroke-width="2"/>
<path d="M5.49988 25C2.5 25 -0.968022 30 3.03409 31C6.79994 31.941 10.7001 29.6667 11.0331 28" stroke="#EB3743" stroke-width="2"/>
</svg>
