<svg width="20" height="14" viewBox="0 0 20 14" fill="none" xmlns="http://www.w3.org/2000/svg">
<path d="M12.4987 6.99992C14.3404 6.99992 15.832 5.50825 15.832 3.66659C15.832 1.82492 14.3404 0.333252 12.4987 0.333252C10.657 0.333252 9.16537 1.82492 9.16537 3.66659C9.16537 5.50825 10.657 6.99992 12.4987 6.99992ZM4.9987 5.33325V3.66659C4.9987 3.20825 4.6237 2.83325 4.16536 2.83325C3.70703 2.83325 3.33203 3.20825 3.33203 3.66659V5.33325H1.66536C1.20703 5.33325 0.832031 5.70825 0.832031 6.16658C0.832031 6.62492 1.20703 6.99992 1.66536 6.99992H3.33203V8.66658C3.33203 9.12492 3.70703 9.49992 4.16536 9.49992C4.6237 9.49992 4.9987 9.12492 4.9987 8.66658V6.99992H6.66536C7.1237 6.99992 7.4987 6.62492 7.4987 6.16658C7.4987 5.70825 7.1237 5.33325 6.66536 5.33325H4.9987ZM12.4987 8.66658C10.2737 8.66658 5.83203 9.78325 5.83203 11.9999V12.8333C5.83203 13.2916 6.20703 13.6666 6.66536 13.6666H18.332C18.7904 13.6666 19.1654 13.2916 19.1654 12.8333V11.9999C19.1654 9.78325 14.7237 8.66658 12.4987 8.66658Z" fill="#222B60"/>
</svg>
