<svg width="144" height="40" viewBox="0 0 144 40" fill="none" xmlns="http://www.w3.org/2000/svg">
<path d="M20.1768 12L4.17676 20V28M20.1768 20L12.1768 24" stroke="#010205" stroke-width="2" stroke-linejoin="round"/>
<path d="M20.1768 28L4.17676 20V28L20.1768 36V28Z" stroke="#010205" stroke-width="2" stroke-linejoin="round"/>
<path d="M36.1768 20V12L20.1768 4V12L28.1768 16" stroke="#010205" stroke-width="2" stroke-linejoin="round"/>
<path d="M20.1768 20L36.1768 12V20L20.1768 28V20Z" stroke="#010205" stroke-width="2" stroke-linejoin="round"/>
<path d="M48.1768 27.1259V8.6459H62.0368V11.7539H52.0408V16.3459H59.9088V19.3139H52.0408V24.0179H62.4288V27.1259H48.1768Z" fill="#010205"/>
<path d="M63.5035 33.0059V13.1259H66.9475L67.1995 17.5779L66.7235 17.0739C66.8915 16.2526 67.1995 15.5246 67.6475 14.8899C68.1142 14.2552 68.7022 13.7606 69.4115 13.4059C70.1208 13.0326 70.9142 12.8459 71.7915 12.8459C72.9302 12.8459 73.9475 13.1352 74.8435 13.7139C75.7395 14.2926 76.4395 15.1232 76.9435 16.2059C77.4662 17.2699 77.7275 18.5672 77.7275 20.0979C77.7275 21.6286 77.4662 22.9446 76.9435 24.0459C76.4208 25.1286 75.7022 25.9592 74.7875 26.5379C73.8915 27.1166 72.8648 27.4059 71.7075 27.4059C70.4755 27.4059 69.4488 27.0606 68.6275 26.3699C67.8248 25.6792 67.2742 24.8112 66.9755 23.7659L67.3395 23.1779V33.0059H63.5035ZM70.5875 24.4659C71.6142 24.4659 72.4168 24.1019 72.9955 23.3739C73.5928 22.6272 73.8915 21.5446 73.8915 20.1259C73.8915 18.7072 73.6022 17.6339 73.0235 16.9059C72.4635 16.1592 71.6702 15.7859 70.6435 15.7859C69.9902 15.7859 69.4115 15.9632 68.9075 16.3179C68.4222 16.6539 68.0395 17.1486 67.7595 17.8019C67.4795 18.4366 67.3395 19.2112 67.3395 20.1259C67.3395 21.0032 67.4702 21.7779 67.7315 22.4499C67.9928 23.1032 68.3662 23.6072 68.8515 23.9619C69.3555 24.2979 69.9342 24.4659 70.5875 24.4659Z" fill="#010205"/>
<path d="M80.9902 11.1099C80.1875 11.1099 79.5902 10.9419 79.1982 10.6059C78.8062 10.2512 78.6102 9.7379 78.6102 9.0659C78.6102 8.37523 78.8062 7.8619 79.1982 7.5259C79.5902 7.17123 80.1875 6.9939 80.9902 6.9939C81.7929 6.9939 82.3902 7.17123 82.7822 7.5259C83.1742 7.8619 83.3702 8.37523 83.3702 9.0659C83.3702 9.7379 83.1742 10.2512 82.7822 10.6059C82.3902 10.9419 81.7929 11.1099 80.9902 11.1099ZM82.8942 13.1259V27.1259H79.0582V13.1259H82.8942Z" fill="#010205"/>
<path d="M91.3165 12.8459C92.5672 12.8459 93.6219 13.0326 94.4805 13.4059C95.3579 13.7606 96.0579 14.2552 96.5805 14.8899C97.1219 15.5059 97.5045 16.1966 97.7285 16.9619L94.1445 18.2499C93.9579 17.4099 93.6405 16.7752 93.1925 16.3459C92.7445 15.9166 92.1379 15.7019 91.3725 15.7019C90.6632 15.7019 90.0565 15.8699 89.5525 16.2059C89.0485 16.5232 88.6659 17.0179 88.4045 17.6899C88.1432 18.3432 88.0125 19.1646 88.0125 20.1539C88.0125 21.1432 88.1432 21.9646 88.4045 22.6179C88.6845 23.2712 89.0765 23.7566 89.5805 24.0739C90.1032 24.3912 90.7099 24.5499 91.4005 24.5499C91.9605 24.5499 92.4365 24.4566 92.8285 24.2699C93.2205 24.0646 93.5379 23.7752 93.7805 23.4019C94.0419 23.0286 94.2192 22.5806 94.3125 22.0579L97.7845 23.1779C97.5792 24.0179 97.1965 24.7552 96.6365 25.3899C96.0765 26.0246 95.3579 26.5192 94.4805 26.8739C93.6032 27.2286 92.5859 27.4059 91.4285 27.4059C89.9912 27.4059 88.7219 27.1166 87.6205 26.5379C86.5192 25.9592 85.6699 25.1286 85.0725 24.0459C84.4752 22.9632 84.1765 21.6566 84.1765 20.1259C84.1765 18.5952 84.4752 17.2886 85.0725 16.2059C85.6699 15.1232 86.5099 14.2926 87.5925 13.7139C88.6752 13.1352 89.9165 12.8459 91.3165 12.8459Z" fill="#010205"/>
<path d="M106.297 8.6459C109.191 8.6459 111.431 9.44856 113.017 11.0539C114.604 12.6406 115.397 14.9179 115.397 17.8859C115.397 20.8352 114.604 23.1126 113.017 24.7179C111.431 26.3232 109.191 27.1259 106.297 27.1259H99.1572V8.6459H106.297ZM106.101 24.0459C107.856 24.0459 109.172 23.5232 110.049 22.4779C110.945 21.4139 111.393 19.8832 111.393 17.8859C111.393 15.8886 110.945 14.3672 110.049 13.3219C109.172 12.2579 107.856 11.7259 106.101 11.7259H103.021V24.0459H106.101Z" fill="#010205"/>
<path d="M123.386 27.4059C121.912 27.4059 120.624 27.1166 119.522 26.5379C118.44 25.9592 117.6 25.1286 117.002 24.0459C116.405 22.9632 116.106 21.6566 116.106 20.1259C116.106 18.5952 116.405 17.2886 117.002 16.2059C117.6 15.1232 118.43 14.2926 119.494 13.7139C120.577 13.1352 121.809 12.8459 123.19 12.8459C124.609 12.8459 125.813 13.1352 126.802 13.7139C127.792 14.2739 128.548 15.0486 129.07 16.0379C129.593 17.0086 129.854 18.1192 129.854 19.3699C129.854 19.7432 129.845 20.0979 129.826 20.4339C129.808 20.7699 129.78 21.0686 129.742 21.3299H118.57V18.6699H128.062L126.214 19.3419C126.214 18.1659 125.944 17.2606 125.402 16.6259C124.88 15.9912 124.133 15.6739 123.162 15.6739C122.453 15.6739 121.837 15.8419 121.314 16.1779C120.81 16.5139 120.428 17.0179 120.166 17.6899C119.905 18.3432 119.774 19.1739 119.774 20.1819C119.774 21.1712 119.914 21.9926 120.194 22.6459C120.493 23.2806 120.904 23.7566 121.426 24.0739C121.968 24.3912 122.612 24.5499 123.358 24.5499C124.18 24.5499 124.842 24.3912 125.346 24.0739C125.85 23.7566 126.242 23.3179 126.522 22.7579L129.574 23.9339C129.276 24.6619 128.818 25.2872 128.202 25.8099C127.605 26.3326 126.886 26.7339 126.046 27.0139C125.225 27.2752 124.338 27.4059 123.386 27.4059Z" fill="#010205"/>
<path d="M139.852 13.1259H143.828L138.508 27.1259H134.084L128.764 13.1259H132.88L136.324 24.1859L139.852 13.1259Z" fill="#010205"/>
</svg>
