<svg width="168" height="40" viewBox="0 0 168 40" fill="none" xmlns="http://www.w3.org/2000/svg">
<path fill-rule="evenodd" clip-rule="evenodd" d="M19.9999 24.4679C25.3643 24.4679 29.7131 20.1192 29.7131 14.7548C29.7131 9.39036 25.3643 5.04164 19.9999 5.04164H10.2868V14.7548C10.2868 20.1192 14.6355 24.4679 19.9999 24.4679ZM34.5696 14.7548C34.5696 22.8014 28.0465 29.3245 19.9999 29.3245C11.9533 29.3245 5.43018 22.8014 5.43018 14.7548V0.185059H19.9999C28.0465 0.185059 34.5696 6.70815 34.5696 14.7548Z" fill="#333333"/>
<path fill-rule="evenodd" clip-rule="evenodd" d="M19.9999 34.9584C25.3643 34.9584 29.7131 30.6097 29.7131 25.2453C29.7131 19.8808 25.3643 15.5321 19.9999 15.5321H10.2868V25.2453C10.2868 30.6097 14.6355 34.9584 19.9999 34.9584ZM34.5696 25.2453C34.5696 33.2919 28.0465 39.815 19.9999 39.815C11.9533 39.815 5.43018 33.2919 5.43018 25.2453V10.6755H19.9999C28.0465 10.6755 34.5696 17.1986 34.5696 25.2453Z" fill="#333333"/>
<path d="M58.976 30.036C59.8613 30.036 60.624 29.9347 61.264 29.732C61.904 29.5293 62.4267 29.2467 62.832 28.884C63.248 28.5107 63.552 28.0733 63.744 27.572C63.936 27.06 64.032 26.5 64.032 25.892C64.032 24.708 63.6107 23.7747 62.768 23.092C61.9253 22.3987 60.6613 22.052 58.976 22.052H54.016V30.036H58.976ZM54.016 12.02V19.844H58.112C58.9867 19.844 59.744 19.748 60.384 19.556C61.0347 19.364 61.568 19.0973 61.984 18.756C62.4107 18.4147 62.7253 18.004 62.928 17.524C63.1307 17.0333 63.232 16.5 63.232 15.924C63.232 14.5693 62.8267 13.5827 62.016 12.964C61.2053 12.3347 59.9467 12.02 58.24 12.02H54.016ZM58.24 9.572C59.648 9.572 60.8587 9.71067 61.872 9.988C62.896 10.2653 63.7333 10.66 64.384 11.172C65.0453 11.684 65.5307 12.3133 65.84 13.06C66.1493 13.796 66.304 14.628 66.304 15.556C66.304 16.1213 66.2133 16.6653 66.032 17.188C65.8613 17.7 65.6 18.18 65.248 18.628C64.896 19.076 64.448 19.4813 63.904 19.844C63.3707 20.196 62.7413 20.484 62.016 20.708C63.7013 21.028 64.9653 21.6307 65.808 22.516C66.6613 23.3907 67.088 24.5427 67.088 25.972C67.088 26.9427 66.9067 27.828 66.544 28.628C66.192 29.428 65.6693 30.116 64.976 30.692C64.2933 31.268 63.4507 31.716 62.448 32.036C61.4453 32.3453 60.304 32.5 59.024 32.5H50.928V9.572H58.24ZM79.5415 22.628C79.5415 21.9667 79.4455 21.364 79.2535 20.82C79.0722 20.2653 78.8002 19.7907 78.4375 19.396C78.0855 18.9907 77.6535 18.6813 77.1415 18.468C76.6295 18.244 76.0482 18.132 75.3975 18.132C74.0322 18.132 72.9495 18.532 72.1495 19.332C71.3602 20.1213 70.8695 21.22 70.6775 22.628H79.5415ZM81.8455 30.228C81.4935 30.6547 81.0722 31.028 80.5815 31.348C80.0908 31.6573 79.5628 31.9133 78.9975 32.116C78.4428 32.3187 77.8668 32.468 77.2695 32.564C76.6722 32.6707 76.0802 32.724 75.4935 32.724C74.3735 32.724 73.3388 32.5373 72.3895 32.164C71.4508 31.78 70.6348 31.2253 69.9415 30.5C69.2588 29.764 68.7255 28.8573 68.3415 27.78C67.9575 26.7027 67.7655 25.4653 67.7655 24.068C67.7655 22.9373 67.9362 21.8813 68.2775 20.9C68.6295 19.9187 69.1308 19.0707 69.7815 18.356C70.4322 17.6307 71.2268 17.0653 72.1655 16.66C73.1042 16.244 74.1602 16.036 75.3335 16.036C76.3042 16.036 77.2002 16.2013 78.0215 16.532C78.8535 16.852 79.5682 17.3213 80.1655 17.94C80.7735 18.548 81.2482 19.3053 81.5895 20.212C81.9308 21.108 82.1015 22.132 82.1015 23.284C82.1015 23.732 82.0535 24.0307 81.9575 24.18C81.8615 24.3293 81.6802 24.404 81.4135 24.404H70.5815C70.6135 25.428 70.7522 26.3187 70.9975 27.076C71.2535 27.8333 71.6055 28.468 72.0535 28.98C72.5015 29.4813 73.0348 29.86 73.6535 30.116C74.2722 30.3613 74.9655 30.484 75.7335 30.484C76.4482 30.484 77.0615 30.404 77.5735 30.244C78.0962 30.0733 78.5442 29.892 78.9175 29.7C79.2908 29.508 79.6002 29.332 79.8455 29.172C80.1015 29.0013 80.3202 28.916 80.5015 28.916C80.7362 28.916 80.9175 29.0067 81.0455 29.188L81.8455 30.228ZM93.0398 18.964C92.9118 19.1987 92.7144 19.316 92.4478 19.316C92.2878 19.316 92.1064 19.2573 91.9038 19.14C91.7011 19.0227 91.4504 18.8947 91.1518 18.756C90.8638 18.6067 90.5171 18.4733 90.1118 18.356C89.7064 18.228 89.2264 18.164 88.6718 18.164C88.1918 18.164 87.7598 18.228 87.3758 18.356C86.9918 18.4733 86.6611 18.6387 86.3838 18.852C86.1171 19.0653 85.9091 19.316 85.7598 19.604C85.6211 19.8813 85.5518 20.1853 85.5518 20.516C85.5518 20.932 85.6691 21.2787 85.9038 21.556C86.1491 21.8333 86.4691 22.0733 86.8638 22.276C87.2584 22.4787 87.7064 22.66 88.2078 22.82C88.7091 22.9693 89.2211 23.1347 89.7438 23.316C90.2771 23.4867 90.7944 23.6787 91.2958 23.892C91.7971 24.1053 92.2451 24.372 92.6398 24.692C93.0344 25.012 93.3491 25.4067 93.5838 25.876C93.8291 26.3347 93.9518 26.8893 93.9518 27.54C93.9518 28.2867 93.8184 28.98 93.5518 29.62C93.2851 30.2493 92.8904 30.7987 92.3678 31.268C91.8451 31.7267 91.2051 32.0893 90.4478 32.356C89.6904 32.6227 88.8158 32.756 87.8238 32.756C86.6931 32.756 85.6691 32.5747 84.7518 32.212C83.8344 31.8387 83.0558 31.364 82.4158 30.788L83.0878 29.7C83.1731 29.5613 83.2744 29.4547 83.3918 29.38C83.5091 29.3053 83.6584 29.268 83.8398 29.268C84.0318 29.268 84.2344 29.3427 84.4478 29.492C84.6611 29.6413 84.9171 29.8067 85.2158 29.988C85.5251 30.1693 85.8984 30.3347 86.3358 30.484C86.7731 30.6333 87.3171 30.708 87.9678 30.708C88.5224 30.708 89.0078 30.6387 89.4237 30.5C89.8398 30.3507 90.1864 30.1533 90.4638 29.908C90.7411 29.6627 90.9438 29.38 91.0718 29.06C91.2104 28.74 91.2798 28.3987 91.2798 28.036C91.2798 27.588 91.1571 27.22 90.9118 26.932C90.6771 26.6333 90.3624 26.3827 89.9678 26.18C89.5731 25.9667 89.1198 25.7853 88.6078 25.636C88.1064 25.476 87.5891 25.3107 87.0558 25.14C86.5331 24.9693 86.0158 24.7773 85.5038 24.564C85.0024 24.34 84.5544 24.0627 84.1598 23.732C83.7651 23.4013 83.4451 22.996 83.1998 22.516C82.9651 22.0253 82.8478 21.4333 82.8478 20.74C82.8478 20.1213 82.9758 19.5293 83.2318 18.964C83.4878 18.388 83.8611 17.8867 84.3518 17.46C84.8424 17.0227 85.4451 16.676 86.1598 16.42C86.8744 16.164 87.6904 16.036 88.6078 16.036C89.6744 16.036 90.6291 16.2067 91.4718 16.548C92.3251 16.8787 93.0611 17.3373 93.6798 17.924L93.0398 18.964ZM100.42 32.756C99.1395 32.756 98.1528 32.3987 97.4595 31.684C96.7768 30.9693 96.4355 29.94 96.4355 28.596V18.676H94.4835C94.3128 18.676 94.1688 18.628 94.0515 18.532C93.9342 18.4253 93.8755 18.2653 93.8755 18.052V16.916L96.5315 16.58L97.1875 11.572C97.2195 11.412 97.2888 11.284 97.3955 11.188C97.5128 11.0813 97.6622 11.028 97.8435 11.028H99.2835V16.612H103.972V18.676H99.2835V28.404C99.2835 29.0867 99.4488 29.5933 99.7795 29.924C100.11 30.2547 100.537 30.42 101.06 30.42C101.358 30.42 101.614 30.3827 101.828 30.308C102.052 30.2227 102.244 30.132 102.404 30.036C102.564 29.94 102.697 29.8547 102.804 29.78C102.921 29.6947 103.022 29.652 103.108 29.652C103.257 29.652 103.39 29.7427 103.508 29.924L104.34 31.284C103.849 31.7427 103.257 32.1053 102.564 32.372C101.87 32.628 101.156 32.756 100.42 32.756ZM113.632 30.036C114.518 30.036 115.28 29.9347 115.92 29.732C116.56 29.5293 117.083 29.2467 117.488 28.884C117.904 28.5107 118.208 28.0733 118.4 27.572C118.592 27.06 118.688 26.5 118.688 25.892C118.688 24.708 118.267 23.7747 117.424 23.092C116.582 22.3987 115.318 22.052 113.632 22.052H108.672V30.036H113.632ZM108.672 12.02V19.844H112.768C113.643 19.844 114.4 19.748 115.04 19.556C115.691 19.364 116.224 19.0973 116.64 18.756C117.067 18.4147 117.382 18.004 117.584 17.524C117.787 17.0333 117.888 16.5 117.888 15.924C117.888 14.5693 117.483 13.5827 116.672 12.964C115.862 12.3347 114.603 12.02 112.896 12.02H108.672ZM112.896 9.572C114.304 9.572 115.515 9.71067 116.528 9.988C117.552 10.2653 118.39 10.66 119.04 11.172C119.702 11.684 120.187 12.3133 120.496 13.06C120.806 13.796 120.96 14.628 120.96 15.556C120.96 16.1213 120.87 16.6653 120.688 17.188C120.518 17.7 120.256 18.18 119.904 18.628C119.552 19.076 119.104 19.4813 118.56 19.844C118.027 20.196 117.398 20.484 116.672 20.708C118.358 21.028 119.622 21.6307 120.464 22.516C121.318 23.3907 121.744 24.5427 121.744 25.972C121.744 26.9427 121.563 27.828 121.2 28.628C120.848 29.428 120.326 30.116 119.632 30.692C118.95 31.268 118.107 31.716 117.104 32.036C116.102 32.3453 114.96 32.5 113.68 32.5H105.584V9.572H112.896ZM132.134 25.204C130.822 25.2467 129.702 25.3533 128.774 25.524C127.856 25.684 127.104 25.8973 126.518 26.164C125.942 26.4307 125.52 26.7453 125.254 27.108C124.998 27.4707 124.87 27.876 124.87 28.324C124.87 28.7507 124.939 29.1187 125.078 29.428C125.216 29.7373 125.403 29.9933 125.638 30.196C125.883 30.388 126.166 30.532 126.486 30.628C126.816 30.7133 127.168 30.756 127.542 30.756C128.043 30.756 128.502 30.708 128.918 30.612C129.334 30.5053 129.723 30.356 130.086 30.164C130.459 29.972 130.811 29.7427 131.142 29.476C131.483 29.2093 131.814 28.9053 132.134 28.564V25.204ZM122.934 18.58C123.83 17.716 124.795 17.0707 125.83 16.644C126.864 16.2173 128.011 16.004 129.27 16.004C130.176 16.004 130.982 16.1533 131.686 16.452C132.39 16.7507 132.982 17.1667 133.462 17.7C133.942 18.2333 134.304 18.8787 134.55 19.636C134.795 20.3933 134.918 21.2253 134.918 22.132V32.5H133.654C133.376 32.5 133.163 32.4573 133.014 32.372C132.864 32.276 132.747 32.0947 132.662 31.828L132.342 30.292C131.915 30.6867 131.499 31.0387 131.094 31.348C130.688 31.6467 130.262 31.9027 129.814 32.116C129.366 32.3187 128.886 32.4733 128.374 32.58C127.872 32.6973 127.312 32.756 126.694 32.756C126.064 32.756 125.472 32.6707 124.918 32.5C124.363 32.3187 123.878 32.052 123.462 31.7C123.056 31.348 122.731 30.9053 122.486 30.372C122.251 29.828 122.134 29.188 122.134 28.452C122.134 27.812 122.31 27.1987 122.662 26.612C123.014 26.0147 123.584 25.4867 124.374 25.028C125.163 24.5693 126.192 24.196 127.462 23.908C128.731 23.6093 130.288 23.4387 132.134 23.396V22.132C132.134 20.8733 131.862 19.924 131.318 19.284C130.774 18.6333 129.979 18.308 128.934 18.308C128.23 18.308 127.638 18.3987 127.158 18.58C126.688 18.7507 126.278 18.948 125.926 19.172C125.584 19.3853 125.286 19.5827 125.03 19.764C124.784 19.9347 124.539 20.02 124.294 20.02C124.102 20.02 123.936 19.972 123.798 19.876C123.659 19.7693 123.542 19.6413 123.446 19.492L122.934 18.58ZM139.944 18.644C140.296 18.2493 140.669 17.892 141.064 17.572C141.459 17.252 141.875 16.98 142.312 16.756C142.76 16.5213 143.229 16.3453 143.72 16.228C144.221 16.1 144.76 16.036 145.336 16.036C146.221 16.036 147 16.1853 147.672 16.484C148.355 16.772 148.92 17.188 149.368 17.732C149.827 18.2653 150.173 18.9107 150.408 19.668C150.643 20.4253 150.76 21.2627 150.76 22.18V32.5H147.896V22.18C147.896 20.9533 147.613 20.004 147.048 19.332C146.493 18.6493 145.645 18.308 144.504 18.308C143.661 18.308 142.872 18.5107 142.136 18.916C141.411 19.3213 140.739 19.8707 140.12 20.564V32.5H137.256V16.292H138.968C139.373 16.292 139.624 16.4893 139.72 16.884L139.944 18.644ZM155.964 8.932V22.804H156.7C156.913 22.804 157.089 22.7773 157.228 22.724C157.377 22.66 157.532 22.5373 157.692 22.356L162.812 16.868C162.961 16.6867 163.116 16.548 163.276 16.452C163.446 16.3453 163.67 16.292 163.948 16.292H166.524L160.556 22.644C160.268 23.0067 159.958 23.2893 159.628 23.492C159.82 23.62 159.99 23.7693 160.14 23.94C160.3 24.1 160.449 24.2867 160.588 24.5L166.924 32.5H164.38C164.134 32.5 163.921 32.4627 163.74 32.388C163.569 32.3027 163.42 32.1533 163.292 31.94L157.964 25.3C157.804 25.076 157.644 24.932 157.484 24.868C157.334 24.7933 157.1 24.756 156.78 24.756H155.964V32.5H153.1V8.932H155.964Z" fill="url(#paint0_linear_104_29656)"/>
<defs>
<linearGradient id="paint0_linear_104_29656" x1="48" y1="20" x2="147.84" y2="20" gradientUnits="userSpaceOnUse">
<stop stop-color="#D9D9D9"/>
<stop offset="1" stop-color="#737373" stop-opacity="0"/>
</linearGradient>
</defs>
</svg>
