<svg width="168" height="23" viewBox="0 0 168 23" fill="none" xmlns="http://www.w3.org/2000/svg">
<path d="M18.816 1.938V22H17.458C17.2433 22 17.0613 21.9627 16.912 21.888C16.772 21.8133 16.632 21.6873 16.492 21.51L4.886 6.39C4.90467 6.62333 4.91867 6.852 4.928 7.076C4.93733 7.3 4.942 7.51 4.942 7.706V22H2.562V1.938H3.962C4.08333 1.938 4.186 1.94733 4.27 1.966C4.354 1.97533 4.42867 1.99867 4.494 2.036C4.55933 2.064 4.62467 2.11067 4.69 2.176C4.75533 2.232 4.82533 2.30667 4.9 2.4L16.506 17.506C16.4873 17.2633 16.4687 17.03 16.45 16.806C16.4407 16.5727 16.436 16.3533 16.436 16.148V1.938H18.816ZM36.3208 19.788L36.3068 22H23.9448V1.938H36.3068V4.15H26.6608V10.814H34.4728V12.942H26.6608V19.788H36.3208ZM55.407 22H52.719C52.5136 22 52.3503 21.9487 52.229 21.846C52.117 21.734 52.0236 21.6127 51.949 21.482L46.573 13.054C46.4983 13.278 46.4143 13.4693 46.321 13.628L41.085 21.482C40.9916 21.6127 40.889 21.734 40.777 21.846C40.6743 21.9487 40.5296 22 40.343 22H37.823L44.725 11.696L38.103 1.938H40.805C41.001 1.938 41.1456 1.97067 41.239 2.036C41.3323 2.10133 41.4163 2.19467 41.491 2.316L46.727 10.352C46.7923 10.156 46.8903 9.94133 47.021 9.708L51.963 2.372C52.0376 2.24133 52.1263 2.13867 52.229 2.064C52.3316 1.98 52.453 1.938 52.593 1.938H55.183L48.533 11.57L55.407 22ZM71.8546 4.22H65.3586V22H62.6566V4.22H56.1466V1.938H71.8546V4.22ZM77.5475 4.15V11.164H85.7935V13.376H77.5475V22H74.8315V1.938H87.1935V4.15H77.5475ZM102.046 19.718V22H90.6636V1.938H93.3656V19.718H102.046ZM122.653 11.976C122.653 13.4787 122.415 14.86 121.939 16.12C121.463 17.3707 120.791 18.4487 119.923 19.354C119.055 20.2593 118.009 20.964 116.787 21.468C115.573 21.9627 114.229 22.21 112.755 22.21C111.28 22.21 109.936 21.9627 108.723 21.468C107.509 20.964 106.469 20.2593 105.601 19.354C104.733 18.4487 104.061 17.3707 103.585 16.12C103.109 14.86 102.871 13.4787 102.871 11.976C102.871 10.4733 103.109 9.09667 103.585 7.846C104.061 6.586 104.733 5.50333 105.601 4.598C106.469 3.68333 107.509 2.974 108.723 2.47C109.936 1.966 111.28 1.714 112.755 1.714C114.229 1.714 115.573 1.966 116.787 2.47C118.009 2.974 119.055 3.68333 119.923 4.598C120.791 5.50333 121.463 6.586 121.939 7.846C122.415 9.09667 122.653 10.4733 122.653 11.976ZM119.867 11.976C119.867 10.744 119.699 9.638 119.363 8.658C119.027 7.678 118.551 6.852 117.935 6.18C117.319 5.49867 116.572 4.976 115.695 4.612C114.817 4.248 113.837 4.066 112.755 4.066C111.681 4.066 110.706 4.248 109.829 4.612C108.951 4.976 108.2 5.49867 107.575 6.18C106.959 6.852 106.483 7.678 106.147 8.658C105.811 9.638 105.643 10.744 105.643 11.976C105.643 13.208 105.811 14.314 106.147 15.294C106.483 16.2647 106.959 17.0907 107.575 17.772C108.2 18.444 108.951 18.962 109.829 19.326C110.706 19.6807 111.681 19.858 112.755 19.858C113.837 19.858 114.817 19.6807 115.695 19.326C116.572 18.962 117.319 18.444 117.935 17.772C118.551 17.0907 119.027 16.2647 119.363 15.294C119.699 14.314 119.867 13.208 119.867 11.976ZM152.236 1.938L145.978 22H143.542L138.46 6.698C138.413 6.54867 138.366 6.39 138.32 6.222C138.282 6.054 138.24 5.87667 138.194 5.69C138.147 5.87667 138.1 6.054 138.054 6.222C138.007 6.39 137.96 6.54867 137.914 6.698L132.804 22H130.368L124.11 1.938H126.364C126.606 1.938 126.807 1.99867 126.966 2.12C127.134 2.24133 127.241 2.39533 127.288 2.582L131.432 16.526C131.497 16.778 131.558 17.0487 131.614 17.338C131.679 17.6273 131.74 17.9353 131.796 18.262C131.861 17.9353 131.926 17.6273 131.992 17.338C132.066 17.0393 132.146 16.7687 132.23 16.526L136.948 2.582C137.004 2.42333 137.111 2.27867 137.27 2.148C137.438 2.008 137.638 1.938 137.872 1.938H138.656C138.898 1.938 139.094 1.99867 139.244 2.12C139.393 2.24133 139.505 2.39533 139.58 2.582L144.284 16.526C144.368 16.7687 144.442 17.03 144.508 17.31C144.582 17.59 144.652 17.884 144.718 18.192C144.764 17.884 144.816 17.59 144.872 17.31C144.928 17.03 144.988 16.7687 145.054 16.526L149.212 2.582C149.258 2.414 149.361 2.26467 149.52 2.134C149.688 2.00333 149.888 1.938 150.122 1.938H152.236ZM165.32 5.074C165.236 5.214 165.143 5.32133 165.04 5.396C164.947 5.46133 164.83 5.494 164.69 5.494C164.531 5.494 164.345 5.41467 164.13 5.256C163.915 5.09733 163.645 4.92467 163.318 4.738C163.001 4.542 162.613 4.36467 162.156 4.206C161.708 4.04733 161.162 3.968 160.518 3.968C159.911 3.968 159.375 4.052 158.908 4.22C158.451 4.37867 158.063 4.598 157.746 4.878C157.438 5.158 157.205 5.48933 157.046 5.872C156.887 6.24533 156.808 6.65133 156.808 7.09C156.808 7.65 156.943 8.11667 157.214 8.49C157.494 8.854 157.858 9.16667 158.306 9.428C158.763 9.68933 159.277 9.918 159.846 10.114C160.425 10.3007 161.013 10.4967 161.61 10.702C162.217 10.9073 162.805 11.1407 163.374 11.402C163.953 11.654 164.466 11.976 164.914 12.368C165.371 12.76 165.735 13.2407 166.006 13.81C166.286 14.3793 166.426 15.0793 166.426 15.91C166.426 16.7873 166.277 17.6133 165.978 18.388C165.679 19.1533 165.241 19.8207 164.662 20.39C164.093 20.9593 163.388 21.4073 162.548 21.734C161.717 22.0607 160.77 22.224 159.706 22.224C158.399 22.224 157.214 21.9907 156.15 21.524C155.086 21.048 154.176 20.4087 153.42 19.606L154.204 18.318C154.279 18.2153 154.367 18.1313 154.47 18.066C154.582 17.9913 154.703 17.954 154.834 17.954C154.955 17.954 155.091 18.0053 155.24 18.108C155.399 18.2013 155.576 18.3227 155.772 18.472C155.968 18.6213 156.192 18.7847 156.444 18.962C156.696 19.1393 156.981 19.3027 157.298 19.452C157.625 19.6013 157.993 19.7273 158.404 19.83C158.815 19.9233 159.277 19.97 159.79 19.97C160.434 19.97 161.008 19.8813 161.512 19.704C162.016 19.5267 162.441 19.2793 162.786 18.962C163.141 18.6353 163.411 18.248 163.598 17.8C163.785 17.352 163.878 16.8527 163.878 16.302C163.878 15.6953 163.738 15.2007 163.458 14.818C163.187 14.426 162.828 14.0993 162.38 13.838C161.932 13.5767 161.419 13.3573 160.84 13.18C160.261 12.9933 159.673 12.8067 159.076 12.62C158.479 12.424 157.891 12.2 157.312 11.948C156.733 11.696 156.22 11.3693 155.772 10.968C155.324 10.5667 154.96 10.0673 154.68 9.47C154.409 8.86333 154.274 8.11667 154.274 7.23C154.274 6.52067 154.409 5.83467 154.68 5.172C154.96 4.50933 155.361 3.92133 155.884 3.408C156.416 2.89467 157.065 2.484 157.83 2.176C158.605 1.868 159.491 1.714 160.49 1.714C161.61 1.714 162.627 1.89133 163.542 2.246C164.466 2.60067 165.278 3.114 165.978 3.786L165.32 5.074Z" fill="url(#paint0_linear_104_29652)"/>
<defs>
<linearGradient id="paint0_linear_104_29652" x1="0" y1="11" x2="168" y2="11" gradientUnits="userSpaceOnUse">
<stop offset="0.08" stop-color="#999999" stop-opacity="0"/>
<stop offset="0.705"/>
</linearGradient>
</defs>
</svg>
