<svg width="168" height="40" viewBox="0 0 168 40" fill="none" xmlns="http://www.w3.org/2000/svg">
<rect x="23.5723" y="9.80005" width="6.8" height="6.8" fill="#010205"/>
<rect x="16.7725" y="16.6001" width="6.8" height="6.8" fill="#010205"/>
<rect x="16.7725" y="16.6001" width="6.8" height="6.8" fill="#010205"/>
<rect x="23.5723" y="23.3999" width="6.8" height="6.8" fill="#010205"/>
<rect x="16.7725" y="30.2" width="6.8" height="6.8" fill="#010205"/>
<rect x="9.97266" y="30.2002" width="6.8" height="6.8" fill="#010205"/>
<rect x="16.7725" y="3" width="6.8" height="6.8" fill="#010205"/>
<path d="M9.97266 3H16.7727V9.8H9.97266V3Z" fill="#010205"/>
<path d="M51.6289 28.896H51.4689C51.1062 29.8773 50.5089 30.6454 49.6769 31.2C48.8662 31.7547 47.9062 32.032 46.7969 32.032C44.6849 32.032 43.0529 31.2747 41.9009 29.76C40.7489 28.224 40.1729 26.08 40.1729 23.328C40.1729 20.576 40.7489 18.4427 41.9009 16.928C43.0529 15.392 44.6849 14.624 46.7969 14.624C47.9062 14.624 48.8662 14.9014 49.6769 15.456C50.5089 15.9894 51.1062 16.7573 51.4689 17.76H51.6289V7.96802H55.1169V31.648H51.6289V28.896ZM47.8529 29.024C48.9195 29.024 49.8155 28.768 50.5409 28.256C51.2662 27.7227 51.6289 27.0294 51.6289 26.176V20.48C51.6289 19.6267 51.2662 18.944 50.5409 18.432C49.8155 17.8987 48.9195 17.632 47.8529 17.632C46.6369 17.632 45.6662 18.0267 44.9409 18.816C44.2155 19.584 43.8529 20.608 43.8529 21.888V24.768C43.8529 26.048 44.2155 27.0827 44.9409 27.872C45.6662 28.64 46.6369 29.024 47.8529 29.024Z" fill="#010205"/>
<path d="M70.2944 31.648C69.377 31.648 68.673 31.392 68.1824 30.88C67.6917 30.3467 67.393 29.6747 67.2864 28.864H67.1264C66.8064 29.9094 66.2197 30.6987 65.3664 31.232C64.513 31.7654 63.4784 32.032 62.2624 32.032C60.5344 32.032 59.201 31.584 58.2624 30.688C57.345 29.792 56.8864 28.5867 56.8864 27.072C56.8864 25.408 57.4837 24.16 58.6784 23.328C59.8944 22.496 61.665 22.08 63.9904 22.08H66.9984V20.672C66.9984 19.648 66.721 18.8587 66.1664 18.304C65.6117 17.7494 64.7477 17.472 63.5744 17.472C62.593 17.472 61.793 17.6854 61.1744 18.112C60.5557 18.5387 60.033 19.0827 59.6064 19.744L57.5264 17.856C58.081 16.9174 58.8597 16.1494 59.8624 15.552C60.865 14.9334 62.177 14.624 63.7984 14.624C65.953 14.624 67.6064 15.1254 68.7584 16.128C69.9104 17.1307 70.4864 18.5707 70.4864 20.448V28.8H72.2463V31.648H70.2944ZM63.2544 29.376C64.3424 29.376 65.2384 29.1414 65.9424 28.672C66.6464 28.1814 66.9984 27.5307 66.9984 26.72V24.32H64.0544C61.6437 24.32 60.4384 25.0667 60.4384 26.56V27.136C60.4384 27.8827 60.6837 28.448 61.1744 28.832C61.6864 29.1947 62.3797 29.376 63.2544 29.376Z" fill="#010205"/>
<path d="M78.1791 31.648C76.9631 31.648 76.0458 31.3387 75.4271 30.72C74.8084 30.08 74.4991 29.184 74.4991 28.032V17.856H71.9071V15.008H73.3151C73.8911 15.008 74.2858 14.88 74.4991 14.624C74.7338 14.368 74.8511 13.952 74.8511 13.376V10.464H77.9871V15.008H81.4751V17.856H77.9871V28.8H81.2191V31.648H78.1791Z" fill="#010205"/>
<path d="M95.4506 31.648C94.5333 31.648 93.8293 31.392 93.3386 30.88C92.8479 30.3467 92.5493 29.6747 92.4426 28.864H92.2826C91.9626 29.9094 91.3759 30.6987 90.5226 31.232C89.6693 31.7654 88.6346 32.032 87.4186 32.032C85.6906 32.032 84.3573 31.584 83.4186 30.688C82.5013 29.792 82.0426 28.5867 82.0426 27.072C82.0426 25.408 82.6399 24.16 83.8346 23.328C85.0506 22.496 86.8213 22.08 89.1466 22.08H92.1546V20.672C92.1546 19.648 91.8773 18.8587 91.3226 18.304C90.7679 17.7494 89.9039 17.472 88.7306 17.472C87.7493 17.472 86.9493 17.6854 86.3306 18.112C85.7119 18.5387 85.1893 19.0827 84.7626 19.744L82.6826 17.856C83.2373 16.9174 84.0159 16.1494 85.0186 15.552C86.0213 14.9334 87.3333 14.624 88.9546 14.624C91.1093 14.624 92.7626 15.1254 93.9146 16.128C95.0666 17.1307 95.6426 18.5707 95.6426 20.448V28.8H97.4026V31.648H95.4506ZM88.4106 29.376C89.4986 29.376 90.3946 29.1414 91.0986 28.672C91.8026 28.1814 92.1546 27.5307 92.1546 26.72V24.32H89.2106C86.7999 24.32 85.5946 25.0667 85.5946 26.56V27.136C85.5946 27.8827 85.8399 28.448 86.3306 28.832C86.8426 29.1947 87.5359 29.376 88.4106 29.376Z" fill="#010205"/>
<path d="M99.0771 9.31202H108.965C110.821 9.31202 112.272 9.83468 113.317 10.88C114.384 11.9254 114.917 13.3227 114.917 15.072C114.917 15.904 114.8 16.6187 114.565 17.216C114.33 17.792 114.032 18.272 113.669 18.656C113.306 19.0187 112.89 19.296 112.421 19.488C111.952 19.6587 111.493 19.7654 111.045 19.808V20C111.493 20.0214 111.984 20.128 112.517 20.32C113.072 20.512 113.584 20.8213 114.053 21.248C114.522 21.6533 114.917 22.1867 115.237 22.848C115.557 23.488 115.717 24.2774 115.717 25.216C115.717 26.112 115.568 26.9547 115.269 27.744C114.992 28.5334 114.597 29.216 114.085 29.792C113.573 30.368 112.965 30.8267 112.261 31.168C111.557 31.488 110.789 31.648 109.957 31.648H99.0771V9.31202ZM102.693 28.544H108.901C109.84 28.544 110.576 28.2987 111.109 27.808C111.642 27.3174 111.909 26.6134 111.909 25.696V24.608C111.909 23.6907 111.642 22.9867 111.109 22.496C110.576 22.0054 109.84 21.76 108.901 21.76H102.693V28.544ZM102.693 18.752H108.293C109.189 18.752 109.882 18.528 110.373 18.08C110.864 17.6107 111.109 16.9494 111.109 16.096V15.072C111.109 14.2187 110.864 13.568 110.373 13.12C109.882 12.6507 109.189 12.416 108.293 12.416H102.693V18.752Z" fill="#010205"/>
<path d="M117.915 15.008H121.403V31.648H117.915V15.008Z" fill="#010205"/>
<path d="M128.992 31.648C127.776 31.648 126.858 31.3387 126.24 30.72C125.621 30.08 125.312 29.184 125.312 28.032V17.856H122.72V15.008H124.128C124.704 15.008 125.098 14.88 125.312 14.624C125.546 14.368 125.664 13.952 125.664 13.376V10.464H128.8V15.008H132.288V17.856H128.8V28.8H132.032V31.648H128.992Z" fill="#010205"/>
<path d="M140.474 32.032C139.279 32.032 138.213 31.8293 137.274 31.424C136.335 31.0187 135.535 30.4427 134.874 29.696C134.213 28.928 133.701 28.0107 133.338 26.944C132.997 25.856 132.826 24.6507 132.826 23.328C132.826 22.0054 132.997 20.8107 133.338 19.744C133.701 18.656 134.213 17.7387 134.874 16.992C135.535 16.224 136.335 15.6374 137.274 15.232C138.213 14.8267 139.279 14.624 140.474 14.624C141.69 14.624 142.757 14.8374 143.674 15.264C144.613 15.6907 145.391 16.288 146.01 17.056C146.629 17.8027 147.087 18.6774 147.386 19.68C147.706 20.6827 147.866 21.76 147.866 22.912V24.224H136.442V24.768C136.442 26.048 136.815 27.104 137.562 27.936C138.33 28.7467 139.418 29.152 140.826 29.152C141.85 29.152 142.714 28.928 143.418 28.48C144.122 28.032 144.719 27.424 145.21 26.656L147.258 28.672C146.639 29.696 145.743 30.5174 144.57 31.136C143.397 31.7334 142.031 32.032 140.474 32.032ZM140.474 17.344C139.877 17.344 139.322 17.4507 138.81 17.664C138.319 17.8774 137.893 18.176 137.53 18.56C137.189 18.944 136.922 19.4027 136.73 19.936C136.538 20.4694 136.442 21.056 136.442 21.696V21.92H144.186V21.6C144.186 20.32 143.855 19.296 143.194 18.528C142.533 17.7387 141.626 17.344 140.474 17.344Z" fill="#010205"/>
<path d="M155.007 32.032C153.429 32.032 152.106 31.7547 151.039 31.2C149.973 30.6454 149.045 29.8773 148.255 28.896L150.495 26.848C151.114 27.5947 151.797 28.1814 152.543 28.608C153.311 29.0133 154.197 29.216 155.199 29.216C156.223 29.216 156.981 29.024 157.471 28.64C157.983 28.2347 158.239 27.68 158.239 26.976C158.239 26.4427 158.058 25.9947 157.695 25.632C157.354 25.248 156.746 25.0027 155.871 24.896L154.335 24.704C152.629 24.4907 151.285 24 150.303 23.232C149.343 22.4427 148.863 21.28 148.863 19.744C148.863 18.9334 149.013 18.2187 149.311 17.6C149.61 16.96 150.026 16.4267 150.559 16C151.114 15.552 151.765 15.2107 152.511 14.976C153.279 14.7414 154.122 14.624 155.039 14.624C156.533 14.624 157.749 14.8587 158.687 15.328C159.647 15.7973 160.501 16.448 161.247 17.28L159.103 19.328C158.677 18.816 158.111 18.3787 157.407 18.016C156.725 17.632 155.935 17.44 155.039 17.44C154.079 17.44 153.365 17.632 152.895 18.016C152.447 18.4 152.223 18.9014 152.223 19.52C152.223 20.16 152.426 20.64 152.831 20.96C153.237 21.28 153.887 21.5147 154.783 21.664L156.319 21.856C158.154 22.1334 159.487 22.6774 160.319 23.488C161.173 24.2774 161.599 25.344 161.599 26.688C161.599 27.4987 161.439 28.2347 161.119 28.896C160.821 29.536 160.383 30.0907 159.807 30.56C159.231 31.0294 158.538 31.392 157.727 31.648C156.917 31.904 156.01 32.032 155.007 32.032Z" fill="#010205"/>
<path d="M165.496 32.032C164.707 32.032 164.12 31.8293 163.736 31.424C163.352 30.9974 163.16 30.4747 163.16 29.856V29.376C163.16 28.7574 163.352 28.2453 163.736 27.84C164.12 27.4134 164.707 27.2 165.496 27.2C166.286 27.2 166.872 27.4134 167.256 27.84C167.64 28.2453 167.832 28.7574 167.832 29.376V29.856C167.832 30.4747 167.64 30.9974 167.256 31.424C166.872 31.8293 166.286 32.032 165.496 32.032Z" fill="#010205"/>
</svg>
