<svg width="204" height="40" viewBox="0 0 204 40" fill="none" xmlns="http://www.w3.org/2000/svg">
<path d="M2.5752 26.8571C2.5752 24.0169 4.8777 21.7144 7.71799 21.7144C10.5583 21.7144 12.8608 24.0169 12.8608 26.8571C12.8608 29.6974 10.5583 31.9999 7.71799 31.9999C4.8777 31.9999 2.5752 29.6974 2.5752 26.8571Z" fill="#010205"/>
<path d="M14.8604 19.9997C14.8604 17.1594 17.1629 14.8569 20.0031 14.8569C22.8434 14.8569 25.1459 17.1594 25.1459 19.9997V26.8568C25.1459 29.6971 22.8434 31.9996 20.0031 31.9996C17.1629 31.9996 14.8604 29.6971 14.8604 26.8568V19.9997Z" fill="#010205"/>
<path d="M14.8604 18.2859C14.8604 15.4456 17.1629 13.1431 20.0031 13.1431C22.8434 13.1431 25.1459 15.4456 25.1459 18.2859C25.1459 21.1261 22.8434 23.4286 20.0031 23.4286C17.1629 23.4286 14.8604 21.1261 14.8604 18.2859Z" fill="#010205"/>
<path d="M27.1465 13.1428C27.1465 10.3025 29.449 8 32.2893 8C35.1296 8 37.4321 10.3025 37.4321 13.1428V26.8569C37.4321 29.6972 35.1296 31.9997 32.2893 31.9997C29.449 31.9997 27.1465 29.6972 27.1465 26.8569V13.1428Z" fill="#010205"/>
<path d="M27.1465 13.1428C27.1465 10.3025 29.449 8 32.2893 8C35.1296 8 37.4321 10.3025 37.4321 13.1428C37.4321 15.9831 35.1296 18.2856 32.2893 18.2856C29.449 18.2856 27.1465 15.9831 27.1465 13.1428Z" fill="#010205"/>
<path d="M74.7879 9.072V32H72.0679V15.152C72.0679 14.928 72.0732 14.688 72.0839 14.432C72.1052 14.176 72.1266 13.9147 72.1479 13.648L64.2759 27.984C64.0306 28.464 63.6572 28.704 63.1559 28.704H62.7079C62.2066 28.704 61.8332 28.464 61.5879 27.984L53.5559 13.584C53.6199 14.1493 53.6519 14.672 53.6519 15.152V32H50.9319V9.072H53.2199C53.4972 9.072 53.7106 9.09867 53.8599 9.152C54.0092 9.20533 54.1532 9.35467 54.2919 9.6L62.2119 23.712C62.3399 23.968 62.4626 24.2347 62.5799 24.512C62.7079 24.7893 62.8252 25.072 62.9319 25.36C63.0386 25.072 63.1506 24.7893 63.2679 24.512C63.3852 24.224 63.5132 23.952 63.6519 23.696L71.4279 9.6C71.5559 9.35467 71.6946 9.20533 71.8439 9.152C72.0039 9.09867 72.2226 9.072 72.4999 9.072H74.7879ZM86.2939 24.704C84.9819 24.7467 83.8619 24.8533 82.9339 25.024C82.0166 25.184 81.2646 25.3973 80.6779 25.664C80.1019 25.9307 79.6806 26.2453 79.4139 26.608C79.1579 26.9707 79.0299 27.376 79.0299 27.824C79.0299 28.2507 79.0992 28.6187 79.2379 28.928C79.3766 29.2373 79.5632 29.4933 79.7979 29.696C80.0432 29.888 80.3259 30.032 80.6459 30.128C80.9766 30.2133 81.3286 30.256 81.7019 30.256C82.2032 30.256 82.6619 30.208 83.0779 30.112C83.4939 30.0053 83.8832 29.856 84.2459 29.664C84.6192 29.472 84.9712 29.2427 85.3019 28.976C85.6432 28.7093 85.9739 28.4053 86.2939 28.064V24.704ZM77.0939 18.08C77.9899 17.216 78.9552 16.5707 79.9899 16.144C81.0246 15.7173 82.1712 15.504 83.4299 15.504C84.3366 15.504 85.1419 15.6533 85.8459 15.952C86.5499 16.2507 87.1419 16.6667 87.6219 17.2C88.1019 17.7333 88.4646 18.3787 88.7099 19.136C88.9552 19.8933 89.0779 20.7253 89.0779 21.632V32H87.8139C87.5366 32 87.3232 31.9573 87.1739 31.872C87.0246 31.776 86.9072 31.5947 86.8219 31.328L86.5019 29.792C86.0752 30.1867 85.6592 30.5387 85.2539 30.848C84.8486 31.1467 84.4219 31.4027 83.9739 31.616C83.5259 31.8187 83.0459 31.9733 82.5339 32.08C82.0326 32.1973 81.4726 32.256 80.8539 32.256C80.2246 32.256 79.6326 32.1707 79.0779 32C78.5232 31.8187 78.0379 31.552 77.6219 31.2C77.2166 30.848 76.8912 30.4053 76.6459 29.872C76.4112 29.328 76.2939 28.688 76.2939 27.952C76.2939 27.312 76.4699 26.6987 76.8219 26.112C77.1739 25.5147 77.7446 24.9867 78.5339 24.528C79.3232 24.0693 80.3526 23.696 81.6219 23.408C82.8912 23.1093 84.4486 22.9387 86.2939 22.896V21.632C86.2939 20.3733 86.0219 19.424 85.4779 18.784C84.9339 18.1333 84.1392 17.808 83.0939 17.808C82.3899 17.808 81.7979 17.8987 81.3179 18.08C80.8486 18.2507 80.4379 18.448 80.0859 18.672C79.7446 18.8853 79.4459 19.0827 79.1899 19.264C78.9446 19.4347 78.6992 19.52 78.4539 19.52C78.2619 19.52 78.0966 19.472 77.9579 19.376C77.8192 19.2693 77.7019 19.1413 77.6059 18.992L77.0939 18.08ZM94.1202 19.04C94.6322 17.9307 95.2615 17.0667 96.0082 16.448C96.7548 15.8187 97.6668 15.504 98.7442 15.504C99.0855 15.504 99.4108 15.5413 99.7202 15.616C100.04 15.6907 100.323 15.808 100.568 15.968L100.36 18.096C100.296 18.3627 100.136 18.496 99.8802 18.496C99.7308 18.496 99.5122 18.464 99.2242 18.4C98.9362 18.336 98.6108 18.304 98.2482 18.304C97.7362 18.304 97.2775 18.3787 96.8722 18.528C96.4775 18.6773 96.1202 18.9013 95.8002 19.2C95.4908 19.488 95.2082 19.8507 94.9522 20.288C94.7068 20.7147 94.4828 21.2053 94.2802 21.76V32H91.4162V15.792H93.0482C93.3575 15.792 93.5708 15.8507 93.6882 15.968C93.8055 16.0853 93.8855 16.288 93.9282 16.576L94.1202 19.04ZM103.936 8.432V22.304H104.672C104.886 22.304 105.062 22.2773 105.2 22.224C105.35 22.16 105.504 22.0373 105.664 21.856L110.784 16.368C110.934 16.1867 111.088 16.048 111.248 15.952C111.419 15.8453 111.643 15.792 111.92 15.792H114.496L108.528 22.144C108.24 22.5067 107.931 22.7893 107.6 22.992C107.792 23.12 107.963 23.2693 108.112 23.44C108.272 23.6 108.422 23.7867 108.56 24L114.896 32H112.352C112.107 32 111.894 31.9627 111.712 31.888C111.542 31.8027 111.392 31.6533 111.264 31.44L105.936 24.8C105.776 24.576 105.616 24.432 105.456 24.368C105.307 24.2933 105.072 24.256 104.752 24.256H103.936V32H101.072V8.432H103.936ZM125.264 22.128C125.264 21.4667 125.168 20.864 124.976 20.32C124.795 19.7653 124.523 19.2907 124.16 18.896C123.808 18.4907 123.376 18.1813 122.864 17.968C122.352 17.744 121.771 17.632 121.12 17.632C119.755 17.632 118.672 18.032 117.872 18.832C117.083 19.6213 116.592 20.72 116.4 22.128H125.264ZM127.568 29.728C127.216 30.1547 126.795 30.528 126.304 30.848C125.813 31.1573 125.285 31.4133 124.72 31.616C124.165 31.8187 123.589 31.968 122.992 32.064C122.395 32.1707 121.803 32.224 121.216 32.224C120.096 32.224 119.061 32.0373 118.112 31.664C117.173 31.28 116.357 30.7253 115.664 30C114.981 29.264 114.448 28.3573 114.064 27.28C113.68 26.2027 113.488 24.9653 113.488 23.568C113.488 22.4373 113.659 21.3813 114 20.4C114.352 19.4187 114.853 18.5707 115.504 17.856C116.155 17.1307 116.949 16.5653 117.888 16.16C118.827 15.744 119.883 15.536 121.056 15.536C122.027 15.536 122.923 15.7013 123.744 16.032C124.576 16.352 125.291 16.8213 125.888 17.44C126.496 18.048 126.971 18.8053 127.312 19.712C127.653 20.608 127.824 21.632 127.824 22.784C127.824 23.232 127.776 23.5307 127.68 23.68C127.584 23.8293 127.403 23.904 127.136 23.904H116.304C116.336 24.928 116.475 25.8187 116.72 26.576C116.976 27.3333 117.328 27.968 117.776 28.48C118.224 28.9813 118.757 29.36 119.376 29.616C119.995 29.8613 120.688 29.984 121.456 29.984C122.171 29.984 122.784 29.904 123.296 29.744C123.819 29.5733 124.267 29.392 124.64 29.2C125.013 29.008 125.323 28.832 125.568 28.672C125.824 28.5013 126.043 28.416 126.224 28.416C126.459 28.416 126.64 28.5067 126.768 28.688L127.568 29.728ZM134.173 32.256C132.893 32.256 131.907 31.8987 131.213 31.184C130.531 30.4693 130.189 29.44 130.189 28.096V18.176H128.237C128.067 18.176 127.923 18.128 127.805 18.032C127.688 17.9253 127.629 17.7653 127.629 17.552V16.416L130.285 16.08L130.941 11.072C130.973 10.912 131.043 10.784 131.149 10.688C131.267 10.5813 131.416 10.528 131.597 10.528H133.037V16.112H137.725V18.176H133.037V27.904C133.037 28.5867 133.203 29.0933 133.533 29.424C133.864 29.7547 134.291 29.92 134.813 29.92C135.112 29.92 135.368 29.8827 135.581 29.808C135.805 29.7227 135.997 29.632 136.157 29.536C136.317 29.44 136.451 29.3547 136.557 29.28C136.675 29.1947 136.776 29.152 136.861 29.152C137.011 29.152 137.144 29.2427 137.261 29.424L138.093 30.784C137.603 31.2427 137.011 31.6053 136.317 31.872C135.624 32.128 134.909 32.256 134.173 32.256ZM151.066 12.656C150.97 12.816 150.863 12.9387 150.746 13.024C150.639 13.0987 150.506 13.136 150.346 13.136C150.165 13.136 149.951 13.0453 149.706 12.864C149.461 12.6827 149.151 12.4853 148.778 12.272C148.415 12.048 147.973 11.8453 147.45 11.664C146.938 11.4827 146.314 11.392 145.578 11.392C144.885 11.392 144.271 11.488 143.738 11.68C143.215 11.8613 142.773 12.112 142.41 12.432C142.058 12.752 141.791 13.1307 141.61 13.568C141.429 13.9947 141.338 14.4587 141.338 14.96C141.338 15.6 141.493 16.1333 141.802 16.56C142.122 16.976 142.538 17.3333 143.05 17.632C143.573 17.9307 144.159 18.192 144.81 18.416C145.471 18.6293 146.143 18.8533 146.826 19.088C147.519 19.3227 148.191 19.5893 148.842 19.888C149.503 20.176 150.09 20.544 150.602 20.992C151.125 21.44 151.541 21.9893 151.85 22.64C152.17 23.2907 152.33 24.0907 152.33 25.04C152.33 26.0427 152.159 26.9867 151.818 27.872C151.477 28.7467 150.975 29.5093 150.314 30.16C149.663 30.8107 148.858 31.3227 147.898 31.696C146.949 32.0693 145.866 32.256 144.65 32.256C143.157 32.256 141.802 31.9893 140.586 31.456C139.37 30.912 138.33 30.1813 137.466 29.264L138.362 27.792C138.447 27.6747 138.549 27.5787 138.666 27.504C138.794 27.4187 138.933 27.376 139.082 27.376C139.221 27.376 139.375 27.4347 139.546 27.552C139.727 27.6587 139.93 27.7973 140.154 27.968C140.378 28.1387 140.634 28.3253 140.922 28.528C141.21 28.7307 141.535 28.9173 141.898 29.088C142.271 29.2587 142.693 29.4027 143.162 29.52C143.631 29.6267 144.159 29.68 144.746 29.68C145.482 29.68 146.138 29.5787 146.714 29.376C147.29 29.1733 147.775 28.8907 148.17 28.528C148.575 28.1547 148.885 27.712 149.098 27.2C149.311 26.688 149.418 26.1173 149.418 25.488C149.418 24.7947 149.258 24.2293 148.938 23.792C148.629 23.344 148.218 22.9707 147.706 22.672C147.194 22.3733 146.607 22.1227 145.946 21.92C145.285 21.7067 144.613 21.4933 143.93 21.28C143.247 21.056 142.575 20.8 141.914 20.512C141.253 20.224 140.666 19.8507 140.154 19.392C139.642 18.9333 139.226 18.3627 138.906 17.68C138.597 16.9867 138.442 16.1333 138.442 15.12C138.442 14.3093 138.597 13.5253 138.906 12.768C139.226 12.0107 139.685 11.3387 140.282 10.752C140.89 10.1653 141.631 9.696 142.506 9.344C143.391 8.992 144.405 8.816 145.546 8.816C146.826 8.816 147.989 9.01867 149.034 9.424C150.09 9.82933 151.018 10.416 151.818 11.184L151.066 12.656ZM162.606 24.704C161.294 24.7467 160.174 24.8533 159.246 25.024C158.329 25.184 157.577 25.3973 156.99 25.664C156.414 25.9307 155.993 26.2453 155.726 26.608C155.47 26.9707 155.342 27.376 155.342 27.824C155.342 28.2507 155.412 28.6187 155.55 28.928C155.689 29.2373 155.876 29.4933 156.11 29.696C156.356 29.888 156.638 30.032 156.958 30.128C157.289 30.2133 157.641 30.256 158.014 30.256C158.516 30.256 158.974 30.208 159.39 30.112C159.806 30.0053 160.196 29.856 160.558 29.664C160.932 29.472 161.284 29.2427 161.614 28.976C161.956 28.7093 162.286 28.4053 162.606 28.064V24.704ZM153.406 18.08C154.302 17.216 155.268 16.5707 156.302 16.144C157.337 15.7173 158.484 15.504 159.742 15.504C160.649 15.504 161.454 15.6533 162.158 15.952C162.862 16.2507 163.454 16.6667 163.934 17.2C164.414 17.7333 164.777 18.3787 165.022 19.136C165.268 19.8933 165.39 20.7253 165.39 21.632V32H164.126C163.849 32 163.636 31.9573 163.486 31.872C163.337 31.776 163.22 31.5947 163.134 31.328L162.814 29.792C162.388 30.1867 161.972 30.5387 161.566 30.848C161.161 31.1467 160.734 31.4027 160.286 31.616C159.838 31.8187 159.358 31.9733 158.846 32.08C158.345 32.1973 157.785 32.256 157.166 32.256C156.537 32.256 155.945 32.1707 155.39 32C154.836 31.8187 154.35 31.552 153.934 31.2C153.529 30.848 153.204 30.4053 152.958 29.872C152.724 29.328 152.606 28.688 152.606 27.952C152.606 27.312 152.782 26.6987 153.134 26.112C153.486 25.5147 154.057 24.9867 154.846 24.528C155.636 24.0693 156.665 23.696 157.934 23.408C159.204 23.1093 160.761 22.9387 162.606 22.896V21.632C162.606 20.3733 162.334 19.424 161.79 18.784C161.246 18.1333 160.452 17.808 159.406 17.808C158.702 17.808 158.11 17.8987 157.63 18.08C157.161 18.2507 156.75 18.448 156.398 18.672C156.057 18.8853 155.758 19.0827 155.502 19.264C155.257 19.4347 155.012 19.52 154.766 19.52C154.574 19.52 154.409 19.472 154.27 19.376C154.132 19.2693 154.014 19.1413 153.918 18.992L153.406 18.08ZM181.273 15.792L174.665 32H172.105L165.497 15.792H167.817C168.052 15.792 168.244 15.8507 168.393 15.968C168.542 16.0853 168.644 16.224 168.697 16.384L172.809 26.816C172.937 27.2107 173.049 27.5947 173.145 27.968C173.241 28.3413 173.332 28.7147 173.417 29.088C173.502 28.7147 173.593 28.3413 173.689 27.968C173.785 27.5947 173.902 27.2107 174.041 26.816L178.201 16.384C178.265 16.2133 178.372 16.0747 178.521 15.968C178.67 15.8507 178.846 15.792 179.049 15.792H181.273ZM195.869 15.792L186.829 36.784C186.733 36.9973 186.61 37.168 186.461 37.296C186.322 37.424 186.104 37.488 185.805 37.488H183.693L186.653 31.056L179.965 15.792H182.429C182.674 15.792 182.866 15.856 183.005 15.984C183.154 16.1013 183.256 16.2347 183.309 16.384L187.645 26.592C187.816 27.04 187.96 27.5093 188.077 28C188.226 27.4987 188.386 27.024 188.557 26.576L192.765 16.384C192.829 16.2133 192.936 16.0747 193.085 15.968C193.245 15.8507 193.421 15.792 193.613 15.792H195.869Z" fill="#010205"/>
</svg>
