<svg width="96" height="17" viewBox="0 0 96 17" fill="none" xmlns="http://www.w3.org/2000/svg">
<path d="M14.9498 6.5875C14.8872 6.39061 14.7666 6.21723 14.6038 6.09009C14.4409 5.96294 14.2435 5.88797 14.0373 5.875L10.3248 5.61875L8.94978 2.15C8.8747 1.959 8.74401 1.79494 8.57464 1.67905C8.40526 1.56317 8.205 1.50079 7.99978 1.5C7.79455 1.50079 7.59429 1.56317 7.42492 1.67905C7.25555 1.79494 7.12486 1.959 7.04978 2.15L5.64978 5.6375L1.96228 5.875C1.75634 5.88881 1.55929 5.9641 1.39661 6.09112C1.23393 6.21814 1.11311 6.39106 1.04978 6.5875C0.984741 6.78695 0.980941 7.00131 1.03887 7.20294C1.0968 7.40458 1.21379 7.58423 1.37478 7.71875L4.21228 10.1187L3.36853 13.4375C3.31015 13.662 3.32066 13.8989 3.39868 14.1174C3.4767 14.3358 3.61863 14.5258 3.80603 14.6625C3.98792 14.793 4.20463 14.8664 4.42843 14.873C4.65222 14.8797 4.87292 14.8195 5.06228 14.7L7.99353 12.8438H8.00603L11.1623 14.8375C11.3242 14.9427 11.5129 14.9991 11.706 15C11.8637 14.9988 12.019 14.9614 12.1599 14.8908C12.3009 14.8201 12.4237 14.7181 12.5191 14.5926C12.6145 14.467 12.6798 14.3213 12.71 14.1666C12.7403 14.0118 12.7346 13.8522 12.6935 13.7L11.7998 10.0688L14.6248 7.71875C14.7858 7.58423 14.9028 7.40458 14.9607 7.20294C15.0186 7.00131 15.0148 6.78695 14.9498 6.5875Z" fill="#FDAE53"/>
<path d="M34.9498 6.5875C34.8872 6.39061 34.7666 6.21723 34.6038 6.09009C34.4409 5.96294 34.2435 5.88797 34.0373 5.875L30.3248 5.61875L28.9498 2.15C28.8747 1.959 28.744 1.79494 28.5746 1.67905C28.4053 1.56317 28.205 1.50079 27.9998 1.5C27.7946 1.50079 27.5943 1.56317 27.4249 1.67905C27.2555 1.79494 27.1249 1.959 27.0498 2.15L25.6498 5.6375L21.9623 5.875C21.7563 5.88881 21.5593 5.9641 21.3966 6.09112C21.2339 6.21814 21.1131 6.39106 21.0498 6.5875C20.9847 6.78695 20.9809 7.00131 21.0389 7.20294C21.0968 7.40458 21.2138 7.58423 21.3748 7.71875L24.2123 10.1187L23.3685 13.4375C23.3102 13.662 23.3207 13.8989 23.3987 14.1174C23.4767 14.3358 23.6186 14.5258 23.806 14.6625C23.9879 14.793 24.2046 14.8664 24.4284 14.873C24.6522 14.8797 24.8729 14.8195 25.0623 14.7L27.9935 12.8438H28.006L31.1623 14.8375C31.3242 14.9427 31.5129 14.9991 31.706 15C31.8637 14.9988 32.019 14.9614 32.1599 14.8908C32.3009 14.8201 32.4237 14.7181 32.5191 14.5926C32.6145 14.467 32.6798 14.3213 32.71 14.1666C32.7403 14.0118 32.7346 13.8522 32.6935 13.7L31.7998 10.0688L34.6248 7.71875C34.7858 7.58423 34.9028 7.40458 34.9607 7.20294C35.0186 7.00131 35.0148 6.78695 34.9498 6.5875Z" fill="#FDAE53"/>
<path d="M54.9498 6.5875C54.8872 6.39061 54.7666 6.21723 54.6038 6.09009C54.4409 5.96294 54.2435 5.88797 54.0373 5.875L50.3248 5.61875L48.9498 2.15C48.8747 1.959 48.744 1.79494 48.5746 1.67905C48.4053 1.56317 48.205 1.50079 47.9998 1.5C47.7946 1.50079 47.5943 1.56317 47.4249 1.67905C47.2555 1.79494 47.1249 1.959 47.0498 2.15L45.6498 5.6375L41.9623 5.875C41.7563 5.88881 41.5593 5.9641 41.3966 6.09112C41.2339 6.21814 41.1131 6.39106 41.0498 6.5875C40.9847 6.78695 40.9809 7.00131 41.0389 7.20294C41.0968 7.40458 41.2138 7.58423 41.3748 7.71875L44.2123 10.1187L43.3685 13.4375C43.3102 13.662 43.3207 13.8989 43.3987 14.1174C43.4767 14.3358 43.6186 14.5258 43.806 14.6625C43.9879 14.793 44.2046 14.8664 44.4284 14.873C44.6522 14.8797 44.8729 14.8195 45.0623 14.7L47.9935 12.8438H48.006L51.1623 14.8375C51.3242 14.9427 51.5129 14.9991 51.706 15C51.8637 14.9988 52.019 14.9614 52.1599 14.8908C52.3009 14.8201 52.4237 14.7181 52.5191 14.5926C52.6145 14.467 52.6798 14.3213 52.71 14.1666C52.7403 14.0118 52.7346 13.8522 52.6935 13.7L51.7998 10.0688L54.6248 7.71875C54.7858 7.58423 54.9028 7.40458 54.9607 7.20294C55.0186 7.00131 55.0148 6.78695 54.9498 6.5875Z" fill="#FDAE53"/>
<path d="M74.9498 6.5875C74.8872 6.39061 74.7666 6.21723 74.6038 6.09009C74.4409 5.96294 74.2435 5.88797 74.0373 5.875L70.3248 5.61875L68.9498 2.15C68.8747 1.959 68.744 1.79494 68.5746 1.67905C68.4053 1.56317 68.205 1.50079 67.9998 1.5C67.7946 1.50079 67.5943 1.56317 67.4249 1.67905C67.2555 1.79494 67.1249 1.959 67.0498 2.15L65.6498 5.6375L61.9623 5.875C61.7563 5.88881 61.5593 5.9641 61.3966 6.09112C61.2339 6.21814 61.1131 6.39106 61.0498 6.5875C60.9847 6.78695 60.9809 7.00131 61.0389 7.20294C61.0968 7.40458 61.2138 7.58423 61.3748 7.71875L64.2123 10.1187L63.3685 13.4375C63.3102 13.662 63.3207 13.8989 63.3987 14.1174C63.4767 14.3358 63.6186 14.5258 63.806 14.6625C63.9879 14.793 64.2046 14.8664 64.4284 14.873C64.6522 14.8797 64.8729 14.8195 65.0623 14.7L67.9935 12.8438H68.006L71.1623 14.8375C71.3242 14.9427 71.5129 14.9991 71.706 15C71.8637 14.9988 72.019 14.9614 72.1599 14.8908C72.3009 14.8201 72.4237 14.7181 72.5191 14.5926C72.6145 14.467 72.6798 14.3213 72.71 14.1666C72.7403 14.0118 72.7346 13.8522 72.6935 13.7L71.7998 10.0688L74.6248 7.71875C74.7858 7.58423 74.9028 7.40458 74.9607 7.20294C75.0186 7.00131 75.0148 6.78695 74.9498 6.5875Z" fill="#FDAE53"/>
<path d="M94.4733 6.73895L94.4733 6.73896L94.4744 6.74251C94.5085 6.84698 94.5105 6.95927 94.4801 7.06488C94.4498 7.17034 94.3887 7.26432 94.3046 7.33475C94.3044 7.33485 94.3043 7.33496 94.3042 7.33507L91.48 9.68436L91.2395 9.88445L91.3143 10.1882L92.208 13.8195L92.2079 13.8195L92.2108 13.8303C92.232 13.9087 92.2349 13.991 92.2193 14.0707C92.2037 14.1504 92.1701 14.2255 92.121 14.2901C92.0718 14.3548 92.0085 14.4074 91.9359 14.4437C91.8642 14.4797 91.7854 14.4989 91.7052 14.5C91.6092 14.499 91.5153 14.4706 91.4347 14.4183L91.4348 14.4182L91.4293 14.4148L88.2731 12.421L88.1507 12.3438H88.006H87.9935H87.8485L87.726 12.4213L84.7955 14.2771C84.7954 14.2772 84.7953 14.2772 84.7952 14.2773C84.6901 14.3436 84.5676 14.377 84.4433 14.3733C84.3197 14.3696 84.1999 14.3292 84.0991 14.2574C83.9936 14.1799 83.9136 14.0726 83.8696 13.9492C83.8253 13.8252 83.8193 13.6908 83.8524 13.5633L83.8531 13.5607L84.6969 10.2419L84.7739 9.93892L84.5352 9.73699L81.6977 7.33699L81.6977 7.33699L81.6954 7.33507C81.6111 7.2646 81.5498 7.1705 81.5194 7.06488C81.4891 6.95927 81.4911 6.84698 81.5251 6.74251L81.5257 6.74093C81.5583 6.63973 81.6205 6.55065 81.7043 6.48521C81.788 6.4199 81.8893 6.38114 81.9951 6.37392C81.9953 6.37391 81.9955 6.37389 81.9957 6.37388L85.6819 6.13647L85.9964 6.11621L86.1138 5.82377L87.5138 2.33627L87.5138 2.33627L87.5151 2.33292C87.5536 2.23509 87.6205 2.15106 87.7073 2.09171C87.7935 2.03271 87.8953 2.00079 87.9998 2.00001C88.1042 2.00079 88.2061 2.03271 88.2923 2.09171C88.379 2.15106 88.446 2.23509 88.4844 2.33292L88.485 2.33425L89.86 5.803L89.9761 6.09587L90.2903 6.11756L94.0028 6.37381L94.0028 6.37382L94.0059 6.37401C94.1115 6.38066 94.2126 6.41906 94.296 6.48418C94.3794 6.5493 94.4412 6.63811 94.4733 6.73895Z" stroke="#FDAE53"/>
</svg>
