<svg width="20" height="20" viewBox="0 0 20 20" fill="none" xmlns="http://www.w3.org/2000/svg">
<path d="M4.16675 13.3333H5.83341C5.83341 12.875 5.67008 12.4825 5.34341 12.1558C5.0173 11.8297 4.62508 11.6667 4.16675 11.6667V13.3333ZM7.72925 13.3333C7.89591 13.3333 8.03841 13.2708 8.15675 13.1458C8.27453 13.0208 8.31953 12.8819 8.29175 12.7292C8.15286 11.8125 7.76064 11.0311 7.11508 10.385C6.46897 9.73944 5.68758 9.34722 4.77091 9.20833C4.61814 9.18056 4.47925 9.22222 4.35425 9.33333C4.22925 9.44444 4.16675 9.59028 4.16675 9.77083C4.16675 9.92361 4.2223 10.0661 4.33341 10.1983C4.44453 10.33 4.59036 10.4097 4.77091 10.4375C5.35425 10.5486 5.85425 10.8125 6.27091 11.2292C6.68758 11.6458 6.95147 12.1458 7.06258 12.7292C7.09036 12.9097 7.17008 13.0556 7.30175 13.1667C7.43397 13.2778 7.57647 13.3333 7.72925 13.3333ZM10.2292 13.3333C10.3959 13.3333 10.5384 13.2708 10.6567 13.1458C10.7745 13.0208 10.8265 12.8819 10.8126 12.7292C10.6598 11.1181 10.0176 9.74639 8.88591 8.61417C7.75369 7.4825 6.38203 6.84028 4.77091 6.6875C4.61814 6.67361 4.47925 6.72222 4.35425 6.83333C4.22925 6.94444 4.16675 7.09028 4.16675 7.27083C4.16675 7.42361 4.22591 7.5625 4.34425 7.6875C4.46203 7.8125 4.60425 7.88889 4.77091 7.91667C6.04869 8.05556 7.13536 8.57306 8.03091 9.46917C8.92703 10.3647 9.44453 11.4514 9.58341 12.7292C9.61119 12.8958 9.68425 13.0381 9.80258 13.1558C9.92036 13.2742 10.0626 13.3333 10.2292 13.3333ZM7.50008 17.5C7.26397 17.5 7.06619 17.42 6.90675 17.26C6.74675 17.1006 6.66675 16.9028 6.66675 16.6667V15.8333H3.33341C2.87508 15.8333 2.48286 15.6703 2.15675 15.3442C1.83008 15.0175 1.66675 14.625 1.66675 14.1667V4.16667C1.66675 3.70833 1.83008 3.31583 2.15675 2.98917C2.48286 2.66306 2.87508 2.5 3.33341 2.5H16.6667C17.1251 2.5 17.5176 2.66306 17.8442 2.98917C18.1704 3.31583 18.3334 3.70833 18.3334 4.16667V14.1667C18.3334 14.625 18.1704 15.0175 17.8442 15.3442C17.5176 15.6703 17.1251 15.8333 16.6667 15.8333H13.3334V16.6667C13.3334 16.9028 13.2537 17.1006 13.0942 17.26C12.9342 17.42 12.7362 17.5 12.5001 17.5H7.50008ZM3.33341 14.1667H16.6667V4.16667H3.33341V14.1667Z" fill="#222B60"/>
</svg>
