<svg width="20" height="20" viewBox="0 0 20 20" fill="none" xmlns="http://www.w3.org/2000/svg">
<path d="M3.33341 15.8333C2.87508 15.8333 2.48272 15.6701 2.15633 15.3438C1.82994 15.0174 1.66675 14.625 1.66675 14.1667V4.16667C1.66675 3.70833 1.82994 3.31597 2.15633 2.98958C2.48272 2.66319 2.87508 2.5 3.33341 2.5H16.6667C17.1251 2.5 17.5174 2.66319 17.8438 2.98958C18.1702 3.31597 18.3334 3.70833 18.3334 4.16667V14.1667C18.3334 14.625 18.1702 15.0174 17.8438 15.3438C17.5174 15.6701 17.1251 15.8333 16.6667 15.8333H13.3334V16.6667C13.3334 16.9028 13.2536 17.1007 13.0938 17.2604C12.9341 17.4201 12.7362 17.5 12.5001 17.5H7.50008C7.26397 17.5 7.06605 17.4201 6.90633 17.2604C6.74661 17.1007 6.66675 16.9028 6.66675 16.6667V15.8333H3.33341ZM3.33341 14.1667H16.6667V4.16667H3.33341V14.1667ZM6.66675 12.5H13.3334V12.0417C13.3334 11.4167 13.0279 10.9201 12.4167 10.5521C11.8056 10.184 11.0001 10 10.0001 10C9.00008 10 8.19453 10.184 7.58341 10.5521C6.9723 10.9201 6.66675 11.4167 6.66675 12.0417V12.5ZM10.0001 9.16667C10.4584 9.16667 10.8508 9.00347 11.1772 8.67708C11.5036 8.35069 11.6667 7.95833 11.6667 7.5C11.6667 7.04167 11.5036 6.64931 11.1772 6.32292C10.8508 5.99653 10.4584 5.83333 10.0001 5.83333C9.54175 5.83333 9.14939 5.99653 8.823 6.32292C8.49661 6.64931 8.33341 7.04167 8.33341 7.5C8.33341 7.95833 8.49661 8.35069 8.823 8.67708C9.14939 9.00347 9.54175 9.16667 10.0001 9.16667Z" fill="#222B60"/>
</svg>
