<svg width="50" height="50" viewBox="0 0 50 50" fill="none" xmlns="http://www.w3.org/2000/svg">
<rect width="50" height="50" rx="8" fill="#EB3743"/>
<mask id="mask0_578_126745" style="mask-type:alpha" maskUnits="userSpaceOnUse" x="0" y="0" width="50" height="50">
<rect width="50" height="50" rx="8" fill="#5C5E84"/>
</mask>
<g mask="url(#mask0_578_126745)">
<rect x="-26" y="27" width="50" height="50" rx="8" fill="#222B60"/>
<rect x="8" y="-9" width="50" height="50" rx="8" fill="#FF4B57"/>
</g>
<path d="M20.8168 32.2173C19.8068 32.2131 18.9439 31.9467 18.228 31.4183C17.5121 30.8899 16.9645 30.1207 16.5852 29.1108C16.206 28.1009 16.0163 26.8842 16.0163 25.4609C16.0163 24.0419 16.206 22.8295 16.5852 21.8239C16.9688 20.8182 17.5185 20.0511 18.2344 19.5227C18.9545 18.9943 19.8153 18.7301 20.8168 18.7301C21.8182 18.7301 22.6768 18.9964 23.3928 19.5291C24.1087 20.0575 24.6563 20.8246 25.0355 21.8303C25.419 22.8317 25.6108 24.0419 25.6108 25.4609C25.6108 26.8885 25.4212 28.1072 25.0419 29.1172C24.6626 30.1229 24.1151 30.892 23.3991 31.4247C22.6832 31.9531 21.8224 32.2173 20.8168 32.2173ZM20.8168 30.5107C21.7031 30.5107 22.3956 30.0781 22.8942 29.2131C23.397 28.348 23.6484 27.0973 23.6484 25.4609C23.6484 24.3743 23.5334 23.456 23.3033 22.706C23.0774 21.9517 22.7514 21.3807 22.3253 20.9929C21.9034 20.6009 21.4006 20.4048 20.8168 20.4048C19.9347 20.4048 19.2422 20.8395 18.7393 21.7088C18.2365 22.5781 17.983 23.8288 17.9787 25.4609C17.9787 26.5518 18.0916 27.4744 18.3175 28.2287C18.5476 28.9787 18.8736 29.5476 19.2955 29.9354C19.7173 30.3189 20.2244 30.5107 20.8168 30.5107ZM32.4359 32.179C31.5581 32.179 30.774 32.0277 30.0836 31.7251C29.3975 31.4226 28.8542 31.0028 28.4537 30.4659C28.0574 29.9247 27.8443 29.2983 27.8145 28.5866H29.8216C29.8471 28.9744 29.9771 29.3111 30.2115 29.5966C30.4501 29.8778 30.7612 30.0952 31.1447 30.2486C31.5282 30.402 31.9544 30.4787 32.4231 30.4787C32.9387 30.4787 33.3947 30.3892 33.791 30.2102C34.1916 30.0312 34.5048 29.782 34.7306 29.4624C34.9565 29.1385 35.0694 28.7656 35.0694 28.3438C35.0694 27.9048 34.9565 27.5192 34.7306 27.1868C34.5091 26.8501 34.1831 26.5859 33.7527 26.3942C33.3265 26.2024 32.8109 26.1065 32.2058 26.1065H31.1V24.4957H32.2058C32.6916 24.4957 33.1177 24.4084 33.4842 24.2337C33.8549 24.0589 34.1447 23.8161 34.3535 23.505C34.5623 23.1896 34.6667 22.821 34.6667 22.3991C34.6667 21.9943 34.5751 21.6428 34.3919 21.3445C34.2129 21.0419 33.9572 20.8054 33.6248 20.6349C33.2967 20.4645 32.9089 20.3793 32.4615 20.3793C32.0353 20.3793 31.6369 20.4581 31.2662 20.6158C30.8997 20.7692 30.6014 20.9908 30.3713 21.2805C30.1412 21.5661 30.0176 21.9091 30.0005 22.3097H28.0893C28.1106 21.6023 28.3194 20.9801 28.7157 20.4432C29.1163 19.9062 29.6447 19.4865 30.301 19.1839C30.9572 18.8814 31.6859 18.7301 32.487 18.7301C33.3265 18.7301 34.051 18.8942 34.6603 19.2223C35.274 19.5462 35.747 19.9787 36.0794 20.5199C36.416 21.0611 36.5822 21.6534 36.5779 22.2969C36.5822 23.0298 36.3777 23.652 35.9643 24.1634C35.5552 24.6747 35.0098 25.0178 34.3279 25.1925V25.2947C35.1973 25.4268 35.8706 25.772 36.3478 26.3303C36.8294 26.8885 37.068 27.581 37.0637 28.4077C37.068 29.1278 36.8677 29.7734 36.4629 30.3445C36.0623 30.9155 35.5147 31.3651 34.8201 31.6932C34.1255 32.017 33.3308 32.179 32.4359 32.179Z" fill="white"/>
</svg>
