<svg width="50" height="50" viewBox="0 0 50 50" fill="none" xmlns="http://www.w3.org/2000/svg">
<rect width="50" height="50" rx="8" fill="#EB3743"/>
<mask id="mask0_578_126732" style="mask-type:alpha" maskUnits="userSpaceOnUse" x="0" y="0" width="50" height="50">
<rect width="50" height="50" rx="8" fill="#5C5E84"/>
</mask>
<g mask="url(#mask0_578_126732)">
<rect x="-26" y="27" width="50" height="50" rx="8" fill="#222B60"/>
<rect x="8" y="-9" width="50" height="50" rx="8" fill="#FF4B57"/>
</g>
<path d="M20.8168 32.2173C19.8068 32.2131 18.9439 31.9467 18.228 31.4183C17.5121 30.8899 16.9645 30.1207 16.5852 29.1108C16.206 28.1009 16.0163 26.8842 16.0163 25.4609C16.0163 24.0419 16.206 22.8295 16.5852 21.8239C16.9688 20.8182 17.5185 20.0511 18.2344 19.5227C18.9545 18.9943 19.8153 18.7301 20.8168 18.7301C21.8182 18.7301 22.6768 18.9964 23.3928 19.5291C24.1087 20.0575 24.6563 20.8246 25.0355 21.8303C25.419 22.8317 25.6108 24.0419 25.6108 25.4609C25.6108 26.8885 25.4212 28.1072 25.0419 29.1172C24.6626 30.1229 24.1151 30.892 23.3991 31.4247C22.6832 31.9531 21.8224 32.2173 20.8168 32.2173ZM20.8168 30.5107C21.7031 30.5107 22.3956 30.0781 22.8942 29.2131C23.397 28.348 23.6484 27.0973 23.6484 25.4609C23.6484 24.3743 23.5334 23.456 23.3033 22.706C23.0774 21.9517 22.7514 21.3807 22.3253 20.9929C21.9034 20.6009 21.4006 20.4048 20.8168 20.4048C19.9347 20.4048 19.2422 20.8395 18.7393 21.7088C18.2365 22.5781 17.983 23.8288 17.9787 25.4609C17.9787 26.5518 18.0916 27.4744 18.3175 28.2287C18.5476 28.9787 18.8736 29.5476 19.2955 29.9354C19.7173 30.3189 20.2244 30.5107 20.8168 30.5107ZM27.8784 32V30.5682L32.3081 25.9787C32.7811 25.4801 33.171 25.0433 33.4778 24.6683C33.7889 24.2891 34.0211 23.929 34.1745 23.5881C34.3279 23.2472 34.4047 22.8849 34.4047 22.5014C34.4047 22.0668 34.3024 21.6918 34.0978 21.3764C33.8933 21.0568 33.6142 20.8118 33.2605 20.6413C32.9068 20.4666 32.5083 20.3793 32.0652 20.3793C31.5964 20.3793 31.1873 20.4751 30.8379 20.6669C30.4885 20.8587 30.22 21.1293 30.0325 21.4787C29.845 21.8281 29.7512 22.2372 29.7512 22.706H27.8656C27.8656 21.9091 28.0488 21.2124 28.4153 20.6158C28.7818 20.0192 29.2846 19.5568 29.9238 19.2287C30.563 18.8963 31.2896 18.7301 32.1035 18.7301C32.926 18.7301 33.6504 18.8942 34.2768 19.2223C34.9075 19.5462 35.3997 19.9893 35.7534 20.5518C36.1071 21.1101 36.2839 21.7408 36.2839 22.4439C36.2839 22.9297 36.1923 23.4048 36.0091 23.8693C35.8301 24.3338 35.5169 24.8516 35.0694 25.4226C34.622 25.9893 33.9998 26.6776 33.2029 27.4872L30.6014 30.2102V30.3061H36.4949V32H27.8784Z" fill="white"/>
</svg>
