<svg width="50" height="50" viewBox="0 0 50 50" fill="none" xmlns="http://www.w3.org/2000/svg">
<rect width="50" height="50" rx="8" fill="#EB3743"/>
<mask id="mask0_578_126720" style="mask-type:alpha" maskUnits="userSpaceOnUse" x="0" y="0" width="50" height="50">
<rect width="50" height="50" rx="8" fill="#5C5E84"/>
</mask>
<g mask="url(#mask0_578_126720)">
<rect x="-26" y="27" width="50" height="50" rx="8" fill="#222B60"/>
<rect x="8" y="-9" width="50" height="50" rx="8" fill="#FF4B57"/>
</g>
<path d="M20.8168 32.2173C19.8068 32.2131 18.9439 31.9467 18.228 31.4183C17.5121 30.8899 16.9645 30.1207 16.5852 29.1108C16.206 28.1009 16.0163 26.8842 16.0163 25.4609C16.0163 24.0419 16.206 22.8295 16.5852 21.8239C16.9688 20.8182 17.5185 20.0511 18.2344 19.5227C18.9545 18.9943 19.8153 18.7301 20.8168 18.7301C21.8182 18.7301 22.6768 18.9964 23.3928 19.5291C24.1087 20.0575 24.6563 20.8246 25.0355 21.8303C25.419 22.8317 25.6108 24.0419 25.6108 25.4609C25.6108 26.8885 25.4212 28.1072 25.0419 29.1172C24.6626 30.1229 24.1151 30.892 23.3991 31.4247C22.6832 31.9531 21.8224 32.2173 20.8168 32.2173ZM20.8168 30.5107C21.7031 30.5107 22.3956 30.0781 22.8942 29.2131C23.397 28.348 23.6484 27.0973 23.6484 25.4609C23.6484 24.3743 23.5334 23.456 23.3033 22.706C23.0774 21.9517 22.7514 21.3807 22.3253 20.9929C21.9034 20.6009 21.4006 20.4048 20.8168 20.4048C19.9347 20.4048 19.2422 20.8395 18.7393 21.7088C18.2365 22.5781 17.983 23.8288 17.9787 25.4609C17.9787 26.5518 18.0916 27.4744 18.3175 28.2287C18.5476 28.9787 18.8736 29.5476 19.2955 29.9354C19.7173 30.3189 20.2244 30.5107 20.8168 30.5107ZM32.845 18.9091V32H30.8635V20.8906H30.7868L27.6547 22.9361V21.044L30.921 18.9091H32.845Z" fill="white"/>
</svg>
